<svg data-v-423bf9ae="" xmlns="http://www.w3.org/2000/svg" viewBox="0 0 305 103" class="iconLeftSlogan"><!----><!----><!----><g data-v-423bf9ae="" id="c938ed81-4809-4698-b660-c6188652225d" fill="white" transform="matrix(4.87012961377663,0,0,4.87012961377663,87.94293637213018,-3.4090909696103964)"><path d="M3.54 8.81L5.46 8.81L5.80 10.50L8.74 10.50L6.36 0.70L2.63 0.70L0.27 10.50L3.21 10.50ZM4.98 6.41L4.00 6.41L4.49 3.95ZM12.26 3.75L9.35 3.75L9.35 13.02L12.26 13.02L12.26 10.05C12.68 10.47 13.26 10.68 13.83 10.68C15.44 10.68 16.74 9.11 16.74 7.13C16.74 5.12 15.44 3.64 13.83 3.64C13.26 3.64 12.67 3.79 12.26 4.23ZM12.25 7.13C12.25 6.58 12.47 6.17 12.99 6.17C13.50 6.17 13.73 6.58 13.73 7.13C13.73 7.66 13.50 8.09 12.99 8.09C12.47 8.09 12.25 7.66 12.25 7.13ZM23.74 4.30C23.44 3.86 22.96 3.60 22.25 3.60C21 3.60 20.61 4.05 20.26 4.24L20.26 3.74L17.32 3.74L17.32 10.50L20.26 10.50L20.26 7.28C20.26 6.85 20.36 6.34 20.92 6.34C21.14 6.34 21.38 6.57 21.38 6.82L21.38 10.50L24.32 10.50L24.32 7.28C24.32 6.85 24.42 6.34 24.98 6.34C25.20 6.34 25.44 6.57 25.44 6.82L25.44 10.50L28.38 10.50L28.38 6.82C28.38 5.24 27.86 3.60 26.11 3.60C25.21 3.60 24.49 3.84 23.74 4.30ZM29.33 1.33C29.33 1.33 29.33 4.26 29.33 4.23C29.74 4.00 30.11 3.81 30.66 3.81C31.36 3.81 31.86 4.16 31.86 4.91C31.86 6.34 29.97 7.25 29.05 7.87L29.05 10.50L35.97 10.50L35.97 7.87C35.97 7.87 33.01 7.87 33.03 7.87C34.08 6.72 35.50 5.46 35.50 3.85C35.50 1.92 33.61 0.80 31.81 0.80C30.94 0.80 30.07 0.95 29.33 1.33ZM41.06 4.44C41.06 4.87 40.71 5.24 40.31 5.24C39.89 5.24 39.55 4.87 39.55 4.44C39.55 4.00 39.89 3.64 40.31 3.64C40.71 3.64 41.06 4.00 41.06 4.44ZM36.29 4.45C36.29 6.29 37.63 7.43 39.30 7.43C39.96 7.43 40.18 7.32 40.43 7.24C40.03 8.51 39.09 9.48 38.26 10.50L41.66 10.50C43.11 9.04 44.46 6.57 44.46 4.45C44.46 2.06 42.55 0.77 40.32 0.77C38.08 0.77 36.29 2.06 36.29 4.45Z"></path></g><!----><g data-v-423bf9ae="" id="d2c9e707-3339-4e86-945a-78aa0c3fdf90" transform="matrix(1.0664573669433595,0,0,1.0664573669433595,-1.7702771284111805,-2.3341604449246063)" stroke="none" fill="white"><g clip-rule="evenodd"><path d="M17.084 2.356c.053.006.976.369 1.104.663.177.405.144 1.758.221 2.578 2.323 24.724 4.529 48.322 6.922 73.049.129 1.336.759 4.242.294 4.934-.295.438-3.026 1.212-3.977.662-.648-.374-.864-2.481-1.104-3.534a506.255 506.255 0 0 1-5.081-24.963c-.058-.328-.199-1.771-.368-1.915-.491-.416-1.515 1.252-1.62 1.547-.789 2.209-1.434 5.528-1.988 7.879-2.37 10.048-4.48 19.13-6.848 29.234-.253 1.081-.676 1.955-.294 2.798.636 1.403 4.122 1.039 6.48.957 6.589-.228 11.766-.285 18.188-.589 1.389-.065 3.082-.372 3.535.074.426.419.424 1.796-.074 2.135-.593.404-2.602.147-3.608.147-6.346 0-11.939.147-18.336.147-2.648 0-7.259.749-8.174-1.179-.634-1.335.208-3.981.589-5.596a2913.665 2913.665 0 0 1 7.732-31.959c.73-2.94 1.064-5.448 3.093-6.849.408-.281.97-.464 1.031-.662.105-.345-.398-1.951-.516-2.725-.974-6.403-1.187-14.074-.884-21.502.147-3.585.055-8.748.221-12.519.078-1.762.074-3.911.074-6.407 0-1.647-.241-5.138.368-5.891.375-.461 2.057-.629 3.02-.514zm.81 24.301c-.378.371.085 2.658.147 3.387.639 7.53 1.272 14.987 1.915 22.46.008.093.1 1.463.368 1.546.144.045.526-.207.589-.368.054-.139-.058-.702-.074-.884-.737-8.452-1.434-16.077-2.356-24.447-.082-.746-.1-1.76-.442-1.694-.027.005-.128-.018-.147 0zm3.682 32.548c.139-.307-.477-3.132-.589-3.461-.033-.096-.506.129-.516.146-.101.2.104.718.147 1.031.122.874.213 1.673.368 2.577.101-.091.53-.161.59-.293zM54.787 90.942c4.725-.511 10.577 1.015 12.003 4.565.057.141.492 2.141.147 2.431-.21.176-2.023 0-2.578 0H48.895c-.648 0-2.353.162-2.577 0-.306-.221-.186-2.155.147-2.356.454-.274 3.435 0 4.124 0 .698 0 3.44.314 3.977-.074.35-.254.221-1.398.221-2.209v-2.357z"></path><path d="M53.682 94.624h-6.628c.996-1.813 4.029-3.052 6.407-3.534.485-.099.294 1.218.294 1.768 0 .715.056 1.315-.073 1.766z"></path></g></g><!----><g data-v-423bf9ae="" id="fe883bb6-a5ce-4d3e-a38b-e589ae1499cc" fill="white" transform="matrix(0.2868667571825571,0,0,0.2868667571825571,88.73290881228198,58.99309825051731)"><path d="M1.83 14.38L1.83 14.38L1.83 14.38Q1.83 13.87 2.00 13.07L2.00 13.07L2.00 13.07Q2.16 12.26 2.42 11.33L2.42 11.33L2.42 11.33Q2.67 10.40 3.01 9.43L3.01 9.43L3.01 9.43Q3.35 8.46 3.70 7.60L3.70 7.60L3.70 7.60Q4.05 6.75 4.38 6.10L4.38 6.10L4.38 6.10Q4.72 5.46 4.98 5.18L4.98 5.18L4.98 5.18Q5.12 5.19 5.36 5.29L5.36 5.29L5.36 5.29Q5.59 5.38 5.82 5.50L5.82 5.50L5.82 5.50Q6.06 5.63 6.26 5.78L6.26 5.78L6.26 5.78Q6.45 5.92 6.51 6.05L6.51 6.05L6.51 6.05Q6.10 6.41 5.71 7.15L5.71 7.15L5.71 7.15Q5.31 7.88 4.94 8.82L4.94 8.82L4.94 8.82Q4.56 9.76 4.24 10.80L4.24 10.80L4.24 10.80Q3.92 11.84 3.68 12.82L3.68 12.82L3.68 12.82Q3.44 13.80 3.31 14.64L3.31 14.64L3.31 14.64Q3.18 15.48 3.18 16.00L3.18 16.00L3.18 16.00Q3.18 16.24 3.22 16.30L3.22 16.30L3.22 16.30Q2.91 16.28 2.77 16.19L2.77 16.19L2.77 16.19Q2.63 16.10 2.56 16.00L2.56 16.00L2.56 16.00Q2.48 15.89 2.42 15.79L2.42 15.79L2.42 15.79Q2.35 15.68 2.23 15.62L2.23 15.62L2.23 15.62Q2.13 15.58 2.06 15.43L2.06 15.43L2.06 15.43Q1.99 15.27 1.94 15.09L1.94 15.09L1.94 15.09Q1.89 14.90 1.86 14.70L1.86 14.70L1.86 14.70Q1.83 14.50 1.83 14.38ZM15.60 6.69L15.60 6.69L15.60 6.69Q15.04 6.69 14.73 6.38L14.73 6.38L14.73 6.38Q14.43 6.06 14.43 5.61L14.43 5.61L14.43 5.61Q14.43 5.50 14.47 5.35L14.47 5.35L14.47 5.35Q14.50 5.19 14.56 5.08L14.56 5.08L14.56 5.08Q14.74 5.17 15.10 5.20L15.10 5.20L15.10 5.20Q15.46 5.24 15.93 5.24L15.93 5.24L15.93 5.24Q16.65 5.24 17.55 5.17L17.55 5.17L17.55 5.17Q18.45 5.11 19.28 5.04L19.28 5.04L19.28 5.04Q20.10 4.97 20.73 4.91L20.73 4.91L20.73 4.91Q21.36 4.84 21.55 4.84L21.55 4.84L21.55 4.84Q22.06 4.84 22.30 5.23L22.30 5.23L22.30 5.23Q22.53 5.61 22.64 6.26L22.64 6.26L22.64 6.26Q22.27 6.23 21.92 6.21L21.92 6.21L21.92 6.21Q21.56 6.19 21.31 6.19L21.31 6.19L21.31 6.19Q20.86 6.19 20.41 6.22L20.41 6.22L20.41 6.22Q19.95 6.24 19.49 6.30L19.49 6.30L19.49 6.30Q19.29 6.71 19.05 7.26L19.05 7.26L19.05 7.26Q18.82 7.81 18.59 8.41L18.59 8.41L18.59 8.41Q18.35 9.02 18.14 9.61L18.14 9.61L18.14 9.61Q17.93 10.21 17.78 10.68L17.78 10.68L17.78 10.68Q17.47 11.61 17.24 12.39L17.24 12.39L17.24 12.39Q17.01 13.17 16.84 13.85L16.84 13.85L16.84 13.85Q16.66 14.53 16.53 15.15L16.53 15.15L16.53 15.15Q16.41 15.76 16.31 16.35L16.31 16.35L16.31 16.35Q15.37 16.21 14.74 15.18L14.74 15.18L14.74 15.18Q14.85 14.74 15.02 14.23L15.02 14.23L15.02 14.23Q15.18 13.72 15.39 13.07L15.39 13.07L15.39 13.07Q15.61 12.42 15.90 11.59L15.90 11.59L15.90 11.59Q16.20 10.77 16.58 9.72L16.58 9.72L16.58 9.72Q16.72 9.32 16.87 8.90L16.87 8.90L16.87 8.90Q17.02 8.47 17.17 8.05L17.17 8.05L17.17 8.05Q17.32 7.63 17.44 7.24L17.44 7.24L17.44 7.24Q17.56 6.85 17.64 6.52L17.64 6.52L17.64 6.52Q17.05 6.59 16.53 6.64L16.53 6.64L16.53 6.64Q16.00 6.69 15.60 6.69ZM30.07 8.08L30.07 8.08L30.07 8.08Q29.99 8.01 29.92 7.85L29.92 7.85L29.92 7.85Q29.85 7.70 29.85 7.55L29.85 7.55L29.85 7.55Q30.02 7.06 30.16 6.42L30.16 6.42L30.16 6.42Q30.31 5.78 30.31 5.00L30.31 5.00L30.31 5.00Q30.31 4.65 30.27 4.28L30.27 4.28L30.27 4.28Q30.24 3.92 30.14 3.51L30.14 3.51L30.14 3.51Q30.81 3.56 31.37 3.80L31.37 3.80L31.37 3.80Q31.92 4.05 32.10 4.40L32.10 4.40L32.10 4.40Q31.86 5.67 31.37 6.61L31.37 6.61L31.37 6.61Q30.88 7.55 30.07 8.08ZM46.80 5.74L46.80 5.74L46.80 5.74Q46.84 5.98 46.86 6.07L46.86 6.07L46.86 6.07Q46.89 6.16 46.89 6.31L46.89 6.31L46.89 6.31Q46.89 6.78 46.68 7.18L46.68 7.18L46.68 7.18Q46.48 7.57 46.13 7.74L46.13 7.74L46.13 7.74Q45.85 7.36 45.44 7.09L45.44 7.09L45.44 7.09Q45.04 6.82 44.55 6.64L44.55 6.64L44.55 6.64Q44.07 6.47 43.55 6.38L43.55 6.38L43.55 6.38Q43.04 6.30 42.55 6.30L42.55 6.30L42.55 6.30Q42.06 6.30 41.63 6.38L41.63 6.38L41.63 6.38Q41.20 6.45 40.87 6.59L40.87 6.59L40.87 6.59Q40.54 6.72 40.35 6.92L40.35 6.92L40.35 6.92Q40.17 7.11 40.17 7.36L40.17 7.36L40.17 7.36Q40.21 7.67 40.54 7.99L40.54 7.99L40.54 7.99Q40.88 8.30 41.37 8.60L41.37 8.60L41.37 8.60Q41.86 8.90 42.45 9.20L42.45 9.20L42.45 9.20Q43.05 9.49 43.62 9.76L43.62 9.76L43.62 9.76Q44.34 10.09 44.86 10.38L44.86 10.38L44.86 10.38Q45.37 10.67 45.71 11.01L45.71 11.01L45.71 11.01Q46.05 11.35 46.21 11.79L46.21 11.79L46.21 11.79Q46.38 12.22 46.38 12.84L46.38 12.84L46.38 12.84Q46.38 13.55 46.14 14.18L46.14 14.18L46.14 14.18Q45.91 14.80 45.45 15.26L45.45 15.26L45.45 15.26Q45.00 15.72 44.35 15.98L44.35 15.98L44.35 15.98Q43.71 16.24 42.91 16.24L42.91 16.24L42.91 16.24Q42.13 16.24 41.22 16.00L41.22 16.00L41.22 16.00Q40.31 15.76 39.52 15.35L39.52 15.35L39.52 15.35Q38.72 14.94 38.20 14.40L38.20 14.40L38.20 14.40Q37.67 13.86 37.67 13.26L37.67 13.26L37.67 13.26Q37.67 12.98 37.84 12.54L37.84 12.54L37.84 12.54Q38.00 12.11 38.42 11.63L38.42 11.63L38.42 11.63Q38.46 12.05 38.87 12.63L38.87 12.63L38.87 12.63Q39.28 13.20 40.11 13.69L40.11 13.69L40.11 13.69Q40.88 14.14 41.70 14.34L41.70 14.34L41.70 14.34Q42.52 14.55 43.23 14.55L43.23 14.55L43.23 14.55Q44.02 14.55 44.51 14.35L44.51 14.35L44.51 14.35Q45.00 14.15 45.28 13.88L45.28 13.88L45.28 13.88Q45.56 13.61 45.67 13.33L45.67 13.33L45.67 13.33Q45.78 13.05 45.79 12.88L45.79 12.88L45.79 12.88Q45.78 12.60 45.53 12.34L45.53 12.34L45.53 12.34Q45.29 12.08 44.88 11.84L44.88 11.84L44.88 11.84Q44.46 11.59 43.92 11.34L43.92 11.34L43.92 11.34Q43.37 11.09 42.78 10.84L42.78 10.84L42.78 10.84Q41.90 10.44 41.27 10.10L41.27 10.10L41.27 10.10Q40.63 9.76 40.21 9.40L40.21 9.40L40.21 9.40Q39.80 9.04 39.61 8.65L39.61 8.65L39.61 8.65Q39.42 8.26 39.42 7.76L39.42 7.76L39.42 7.76Q39.42 6.97 39.90 6.27L39.90 6.27L39.90 6.27Q40.38 5.57 41.27 5.21L41.27 5.21L41.27 5.21Q41.72 5.01 42.23 4.93L42.23 4.93L42.23 4.93Q42.74 4.84 43.23 4.84L43.23 4.84L43.23 4.84Q44.16 4.84 45.04 5.10L45.04 5.10L45.04 5.10Q45.92 5.35 46.80 5.74ZM74.48 7.46L74.48 7.46L74.48 7.46Q74.48 8.33 74.00 9.01L74.00 9.01L74.00 9.01Q73.53 9.69 72.70 10.14L72.70 10.14L72.70 10.14Q73.23 10.50 73.55 11.03L73.55 11.03L73.55 11.03Q73.86 11.55 73.86 12.18L73.86 12.18L73.86 12.18Q73.86 12.94 73.41 13.67L73.41 13.67L73.41 13.67Q72.95 14.41 72.20 14.97L72.20 14.97L72.20 14.97Q71.44 15.54 70.48 15.89L70.48 15.89L70.48 15.89Q69.51 16.24 68.50 16.24L68.50 16.24L68.50 16.24Q67.41 16.24 66.59 15.83L66.59 15.83L66.59 15.83Q65.77 15.41 65.31 14.66L65.31 14.66L65.31 14.66Q65.45 14.24 65.68 13.62L65.68 13.62L65.68 13.62Q65.91 12.99 66.19 12.30L66.19 12.30L66.19 12.30Q66.47 11.61 66.76 10.92L66.76 10.92L66.76 10.92Q67.05 10.23 67.30 9.69L67.30 9.69L67.30 9.69Q67.83 8.50 68.25 7.71L68.25 7.71L68.25 7.71Q68.67 6.93 69.02 6.47L69.02 6.47L69.02 6.47Q68.25 6.71 67.62 7.01L67.62 7.01L67.62 7.01Q66.99 7.31 66.70 7.59L66.70 7.59L66.70 7.59Q66.57 7.50 66.44 7.34L66.44 7.34L66.44 7.34Q66.30 7.17 66.18 6.96L66.18 6.96L66.18 6.96Q66.07 6.76 65.99 6.55L65.99 6.55L65.99 6.55Q65.91 6.34 65.90 6.17L65.90 6.17L65.90 6.17Q66.26 5.92 66.84 5.69L66.84 5.69L66.84 5.69Q67.42 5.46 68.11 5.29L68.11 5.29L68.11 5.29Q68.80 5.12 69.52 5.03L69.52 5.03L69.52 5.03Q70.24 4.93 70.90 4.93L70.90 4.93L70.90 4.93Q72.58 4.93 73.53 5.60L73.53 5.60L73.53 5.60Q74.48 6.27 74.48 7.46ZM69.15 10.81L69.15 10.81L69.15 10.81Q68.88 10.68 68.66 10.43L68.66 10.43L68.66 10.43Q68.33 11.14 68.05 11.83L68.05 11.83L68.05 11.83Q67.76 12.52 67.54 13.10L67.54 13.10L67.54 13.10Q67.31 13.69 67.17 14.13L67.17 14.13L67.17 14.13Q67.03 14.56 67.02 14.76L67.02 14.76L67.02 14.76Q67.21 14.87 67.49 14.92L67.49 14.92L67.49 14.92Q67.76 14.98 68.17 14.98L68.17 14.98L68.17 14.98Q69.12 14.98 69.99 14.71L69.99 14.71L69.99 14.71Q70.85 14.45 71.51 13.99L71.51 13.99L71.51 13.99Q72.17 13.54 72.56 12.95L72.56 12.95L72.56 12.95Q72.95 12.36 72.95 11.72L72.95 11.72L72.95 11.72Q72.95 10.79 72.16 10.39L72.16 10.39L72.16 10.39Q71.06 10.84 69.69 10.84L69.69 10.84L69.69 10.84Q69.50 10.84 69.39 10.84L69.39 10.84L69.39 10.84Q69.29 10.84 69.15 10.81ZM71.86 5.95L71.86 5.95L71.86 5.95Q71.57 5.95 71.24 5.98L71.24 5.98L71.24 5.98Q70.91 6.02 70.55 6.09L70.55 6.09L70.55 6.09Q70.60 6.15 70.64 6.21L70.64 6.21L70.64 6.21Q70.67 6.27 70.70 6.34L70.70 6.34L70.70 6.34Q70.57 6.51 70.39 6.83L70.39 6.83L70.39 6.83Q70.21 7.15 69.99 7.58L69.99 7.58L69.99 7.58Q69.76 8.01 69.52 8.53L69.52 8.53L69.52 8.53Q69.27 9.04 69.02 9.59L69.02 9.59L69.02 9.59Q69.26 9.53 69.60 9.50L69.60 9.50L69.60 9.50Q69.94 9.46 70.28 9.46L70.28 9.46L70.28 9.46Q70.46 9.46 70.64 9.48L70.64 9.48L70.64 9.48Q70.81 9.49 70.98 9.52L70.98 9.52L70.98 9.52Q71.65 9.41 72.19 9.19L72.19 9.19L72.19 9.19Q72.73 8.97 73.12 8.69L73.12 8.69L73.12 8.69Q73.51 8.40 73.72 8.05L73.72 8.05L73.72 8.05Q73.93 7.70 73.93 7.31L73.93 7.31L73.93 7.31Q73.93 6.64 73.40 6.29L73.40 6.29L73.40 6.29Q72.87 5.95 71.86 5.95ZM87.61 9.21L87.61 9.21L87.61 9.21Q88.07 9.21 88.33 9.46L88.33 9.46L88.33 9.46Q88.59 9.72 88.59 10.16L88.59 10.16L88.59 10.16Q88.59 10.28 88.57 10.39L88.57 10.39L88.57 10.39Q88.55 10.51 88.52 10.60L88.52 10.60L88.52 10.60Q88.34 10.57 88.12 10.55L88.12 10.55L88.12 10.55Q87.89 10.53 87.58 10.53L87.58 10.53L87.58 10.53Q86.98 10.53 86.37 10.63L86.37 10.63L86.37 10.63Q85.75 10.74 85.19 10.81L85.19 10.81L85.19 10.81Q84.87 11.55 84.60 12.24L84.60 12.24L84.60 12.24Q84.34 12.94 84.15 13.51L84.15 13.51L84.15 13.51Q83.96 14.08 83.85 14.50L83.85 14.50L83.85 14.50Q83.75 14.92 83.73 15.13L83.73 15.13L83.73 15.13Q84.87 14.90 86.02 14.73L86.02 14.73L86.02 14.73Q87.18 14.56 88.45 14.48L88.45 14.48L88.45 14.48Q88.61 14.71 88.71 14.99L88.71 14.99L88.71 14.99Q88.82 15.27 88.82 15.60L88.82 15.60L88.82 15.60Q88.82 15.68 88.82 15.78L88.82 15.78L88.82 15.78Q88.82 15.88 88.79 15.97L88.79 15.97L88.79 15.97Q88.40 15.96 87.96 15.95L87.96 15.95L87.96 15.95Q87.53 15.95 86.83 15.95L86.83 15.95L86.83 15.95Q86.37 15.95 85.95 15.97L85.95 15.97L85.95 15.97Q85.54 15.99 85.12 16.03L85.12 16.03L85.12 16.03Q84.70 16.07 84.23 16.14L84.23 16.14L84.23 16.14Q83.76 16.21 83.17 16.31L83.17 16.31L83.17 16.31Q82.53 16.06 81.93 15.08L81.93 15.08L81.93 15.08Q82.17 14.57 82.59 13.54L82.59 13.54L82.59 13.54Q83.02 12.52 83.68 10.79L83.68 10.79L83.68 10.79Q83.05 10.60 82.85 10.09L82.85 10.09L82.85 10.09Q82.92 10.02 83.26 9.92L83.26 9.92L83.26 9.92Q83.59 9.81 84.08 9.70L84.08 9.70L84.08 9.70Q84.29 9.16 84.44 8.75L84.44 8.75L84.44 8.75Q84.59 8.34 84.70 7.99L84.70 7.99L84.70 7.99Q84.81 7.63 84.90 7.29L84.90 7.29L84.90 7.29Q84.99 6.94 85.08 6.54L85.08 6.54L85.08 6.54Q84.59 6.51 84.31 6.27L84.31 6.27L84.31 6.27Q84.03 6.02 84.03 5.63L84.03 5.63L84.03 5.63Q84.03 5.52 84.06 5.36L84.06 5.36L84.06 5.36Q84.10 5.21 84.14 5.10L84.14 5.10L84.14 5.10Q84.42 5.14 84.68 5.15L84.68 5.15L84.68 5.15Q84.94 5.17 85.36 5.17L85.36 5.17L85.36 5.17Q86.24 5.17 87.01 5.12L87.01 5.12L87.01 5.12Q87.78 5.07 88.40 5.01L88.40 5.01L88.40 5.01Q89.03 4.96 89.47 4.91L89.47 4.91L89.47 4.91Q89.92 4.86 90.16 4.86L90.16 4.86L90.16 4.86Q90.48 4.86 90.73 5.19L90.73 5.19L90.73 5.19Q90.99 5.53 91.11 6.15L91.11 6.15L91.11 6.15Q90.68 6.10 90.41 6.09L90.41 6.09L90.41 6.09Q90.13 6.08 89.92 6.08L89.92 6.08L89.92 6.08Q89.15 6.08 88.52 6.15L88.52 6.15L88.52 6.15Q87.88 6.23 87.29 6.31L87.29 6.31L87.29 6.31Q87.21 6.44 87.10 6.64L87.10 6.64L87.10 6.64Q87.00 6.83 86.83 7.18L86.83 7.18L86.83 7.18Q86.66 7.53 86.41 8.06L86.41 8.06L86.41 8.06Q86.17 8.60 85.82 9.39L85.82 9.39L85.82 9.39Q86.35 9.31 86.82 9.26L86.82 9.26L86.82 9.26Q87.29 9.21 87.61 9.21ZM100.13 6.69L100.13 6.69L100.13 6.69Q99.57 6.69 99.27 6.38L99.27 6.38L99.27 6.38Q98.97 6.06 98.97 5.61L98.97 5.61L98.97 5.61Q98.97 5.50 99.00 5.35L99.00 5.35L99.00 5.35Q99.04 5.19 99.09 5.08L99.09 5.08L99.09 5.08Q99.27 5.17 99.63 5.20L99.63 5.20L99.63 5.20Q99.99 5.24 100.46 5.24L100.46 5.24L100.46 5.24Q101.18 5.24 102.08 5.17L102.08 5.17L102.08 5.17Q102.98 5.11 103.81 5.04L103.81 5.04L103.81 5.04Q104.64 4.97 105.27 4.91L105.27 4.91L105.27 4.91Q105.90 4.84 106.08 4.84L106.08 4.84L106.08 4.84Q106.60 4.84 106.83 5.23L106.83 5.23L106.83 5.23Q107.06 5.61 107.17 6.26L107.17 6.26L107.17 6.26Q106.81 6.23 106.45 6.21L106.45 6.21L106.45 6.21Q106.09 6.19 105.84 6.19L105.84 6.19L105.84 6.19Q105.39 6.19 104.94 6.22L104.94 6.22L104.94 6.22Q104.48 6.24 104.02 6.30L104.02 6.30L104.02 6.30Q103.82 6.71 103.59 7.26L103.59 7.26L103.59 7.26Q103.35 7.81 103.12 8.41L103.12 8.41L103.12 8.41Q102.89 9.02 102.68 9.61L102.68 9.61L102.68 9.61Q102.47 10.21 102.31 10.68L102.31 10.68L102.31 10.68Q102.00 11.61 101.77 12.39L101.77 12.39L101.77 12.39Q101.54 13.17 101.37 13.85L101.37 13.85L101.37 13.85Q101.19 14.53 101.07 15.15L101.07 15.15L101.07 15.15Q100.94 15.76 100.84 16.35L100.84 16.35L100.84 16.35Q99.90 16.21 99.27 15.18L99.27 15.18L99.27 15.18Q99.39 14.74 99.55 14.23L99.55 14.23L99.55 14.23Q99.71 13.72 99.92 13.07L99.92 13.07L99.92 13.07Q100.14 12.42 100.44 11.59L100.44 11.59L100.44 11.59Q100.73 10.77 101.11 9.72L101.11 9.72L101.11 9.72Q101.25 9.32 101.40 8.90L101.40 8.90L101.40 8.90Q101.56 8.47 101.70 8.05L101.70 8.05L101.70 8.05Q101.85 7.63 101.97 7.24L101.97 7.24L101.97 7.24Q102.09 6.85 102.17 6.52L102.17 6.52L102.17 6.52Q101.58 6.59 101.06 6.64L101.06 6.64L101.06 6.64Q100.53 6.69 100.13 6.69ZM115.36 6.69L115.36 6.69L115.36 6.69Q114.80 6.69 114.50 6.38L114.50 6.38L114.50 6.38Q114.20 6.06 114.20 5.61L114.20 5.61L114.20 5.61Q114.20 5.50 114.23 5.35L114.23 5.35L114.23 5.35Q114.27 5.19 114.32 5.08L114.32 5.08L114.32 5.08Q114.51 5.17 114.86 5.20L114.86 5.20L114.86 5.20Q115.22 5.24 115.70 5.24L115.70 5.24L115.70 5.24Q116.41 5.24 117.31 5.17L117.31 5.17L117.31 5.17Q118.22 5.11 119.04 5.04L119.04 5.04L119.04 5.04Q119.87 4.97 120.50 4.91L120.50 4.91L120.50 4.91Q121.13 4.84 121.31 4.84L121.31 4.84L121.31 4.84Q121.83 4.84 122.06 5.23L122.06 5.23L122.06 5.23Q122.29 5.61 122.40 6.26L122.40 6.26L122.40 6.26Q122.04 6.23 121.68 6.21L121.68 6.21L121.68 6.21Q121.32 6.19 121.07 6.19L121.07 6.19L121.07 6.19Q120.62 6.19 120.17 6.22L120.17 6.22L120.17 6.22Q119.71 6.24 119.25 6.30L119.25 6.30L119.25 6.30Q119.06 6.71 118.82 7.26L118.82 7.26L118.82 7.26Q118.58 7.81 118.35 8.41L118.35 8.41L118.35 8.41Q118.12 9.02 117.91 9.61L117.91 9.61L117.91 9.61Q117.70 10.21 117.54 10.68L117.54 10.68L117.54 10.68Q117.24 11.61 117.00 12.39L117.00 12.39L117.00 12.39Q116.77 13.17 116.60 13.85L116.60 13.85L116.60 13.85Q116.42 14.53 116.30 15.15L116.30 15.15L116.30 15.15Q116.17 15.76 116.07 16.35L116.07 16.35L116.07 16.35Q115.14 16.21 114.51 15.18L114.51 15.18L114.51 15.18Q114.62 14.74 114.78 14.23L114.78 14.23L114.78 14.23Q114.94 13.72 115.16 13.07L115.16 13.07L115.16 13.07Q115.37 12.42 115.67 11.59L115.67 11.59L115.67 11.59Q115.96 10.77 116.34 9.72L116.34 9.72L116.34 9.72Q116.48 9.32 116.63 8.90L116.63 8.90L116.63 8.90Q116.79 8.47 116.93 8.05L116.93 8.05L116.93 8.05Q117.08 7.63 117.20 7.24L117.20 7.24L117.20 7.24Q117.32 6.85 117.40 6.52L117.40 6.52L117.40 6.52Q116.82 6.59 116.29 6.64L116.29 6.64L116.29 6.64Q115.77 6.69 115.36 6.69ZM133.60 9.21L133.60 9.21L133.60 9.21Q134.06 9.21 134.32 9.46L134.32 9.46L134.32 9.46Q134.58 9.72 134.58 10.16L134.58 10.16L134.58 10.16Q134.58 10.28 134.56 10.39L134.56 10.39L134.56 10.39Q134.54 10.51 134.51 10.60L134.51 10.60L134.51 10.60Q134.33 10.57 134.11 10.55L134.11 10.55L134.11 10.55Q133.88 10.53 133.57 10.53L133.57 10.53L133.57 10.53Q132.97 10.53 132.36 10.63L132.36 10.63L132.36 10.63Q131.74 10.74 131.18 10.81L131.18 10.81L131.18 10.81Q130.86 11.55 130.59 12.24L130.59 12.24L130.59 12.24Q130.33 12.94 130.14 13.51L130.14 13.51L130.14 13.51Q129.95 14.08 129.84 14.50L129.84 14.50L129.84 14.50Q129.74 14.92 129.72 15.13L129.72 15.13L129.72 15.13Q130.86 14.90 132.01 14.73L132.01 14.73L132.01 14.73Q133.17 14.56 134.44 14.48L134.44 14.48L134.44 14.48Q134.60 14.71 134.70 14.99L134.70 14.99L134.70 14.99Q134.81 15.27 134.81 15.60L134.81 15.60L134.81 15.60Q134.81 15.68 134.81 15.78L134.81 15.78L134.81 15.78Q134.81 15.88 134.78 15.97L134.78 15.97L134.78 15.97Q134.39 15.96 133.95 15.95L133.95 15.95L133.95 15.95Q133.52 15.95 132.82 15.95L132.82 15.95L132.82 15.95Q132.36 15.95 131.94 15.97L131.94 15.97L131.94 15.97Q131.53 15.99 131.11 16.03L131.11 16.03L131.11 16.03Q130.69 16.07 130.22 16.14L130.22 16.14L130.22 16.14Q129.75 16.21 129.16 16.31L129.16 16.31L129.16 16.31Q128.52 16.06 127.92 15.08L127.92 15.08L127.92 15.08Q128.16 14.57 128.58 13.54L128.58 13.54L128.58 13.54Q129.01 12.52 129.67 10.79L129.67 10.79L129.67 10.79Q129.04 10.60 128.84 10.09L128.84 10.09L128.84 10.09Q128.91 10.02 129.25 9.92L129.25 9.92L129.25 9.92Q129.58 9.81 130.07 9.70L130.07 9.70L130.07 9.70Q130.28 9.16 130.43 8.75L130.43 8.75L130.43 8.75Q130.58 8.34 130.69 7.99L130.69 7.99L130.69 7.99Q130.80 7.63 130.89 7.29L130.89 7.29L130.89 7.29Q130.98 6.94 131.07 6.54L131.07 6.54L131.07 6.54Q130.58 6.51 130.30 6.27L130.30 6.27L130.30 6.27Q130.02 6.02 130.02 5.63L130.02 5.63L130.02 5.63Q130.02 5.52 130.05 5.36L130.05 5.36L130.05 5.36Q130.09 5.21 130.13 5.10L130.13 5.10L130.13 5.10Q130.41 5.14 130.67 5.15L130.67 5.15L130.67 5.15Q130.93 5.17 131.35 5.17L131.35 5.17L131.35 5.17Q132.23 5.17 133 5.12L133 5.12L133 5.12Q133.77 5.07 134.39 5.01L134.39 5.01L134.39 5.01Q135.02 4.96 135.46 4.91L135.46 4.91L135.46 4.91Q135.91 4.86 136.15 4.86L136.15 4.86L136.15 4.86Q136.47 4.86 136.72 5.19L136.72 5.19L136.72 5.19Q136.98 5.53 137.10 6.15L137.10 6.15L137.10 6.15Q136.67 6.10 136.39 6.09L136.39 6.09L136.39 6.09Q136.12 6.08 135.91 6.08L135.91 6.08L135.91 6.08Q135.14 6.08 134.50 6.15L134.50 6.15L134.50 6.15Q133.87 6.23 133.28 6.31L133.28 6.31L133.28 6.31Q133.20 6.44 133.09 6.64L133.09 6.64L133.09 6.64Q132.99 6.83 132.82 7.18L132.82 7.18L132.82 7.18Q132.65 7.53 132.41 8.06L132.41 8.06L132.41 8.06Q132.16 8.60 131.81 9.39L131.81 9.39L131.81 9.39Q132.34 9.31 132.81 9.26L132.81 9.26L132.81 9.26Q133.28 9.21 133.60 9.21ZM152.87 7.46L152.87 7.46L152.87 7.46Q152.87 8.13 152.56 8.73L152.56 8.73L152.56 8.73Q152.26 9.32 151.73 9.79L151.73 9.79L151.73 9.79Q151.20 10.26 150.49 10.58L150.49 10.58L150.49 10.58Q149.77 10.91 148.93 11.02L148.93 11.02L148.93 11.02Q149.14 11.65 149.44 12.31L149.44 12.31L149.44 12.31Q149.74 12.98 150.09 13.59L150.09 13.59L150.09 13.59Q150.44 14.21 150.82 14.73L150.82 14.73L150.82 14.73Q151.20 15.25 151.56 15.58L151.56 15.58L151.56 15.58Q151.49 15.72 151.36 15.86L151.36 15.86L151.36 15.86Q151.23 16.00 151.05 16.12L151.05 16.12L151.05 16.12Q150.88 16.24 150.69 16.32L150.69 16.32L150.69 16.32Q150.50 16.39 150.33 16.39L150.33 16.39L150.33 16.39Q150.02 16.39 149.74 16.10L149.74 16.10L149.74 16.10Q149.46 15.81 149.18 15.17L149.18 15.17L149.18 15.17Q148.89 14.53 148.57 13.52L148.57 13.52L148.57 13.52Q148.26 12.50 147.88 11.07L147.88 11.07L147.88 11.07Q147.73 11.07 147.57 11.07L147.57 11.07L147.57 11.07Q147.42 11.07 147.34 11.05L147.34 11.05L147.34 11.05Q147.24 10.99 147.13 10.85L147.13 10.85L147.13 10.85Q146.75 11.66 146.45 12.38L146.45 12.38L146.45 12.38Q146.16 13.09 145.93 13.76L145.93 13.76L145.93 13.76Q145.70 14.42 145.52 15.04L145.52 15.04L145.52 15.04Q145.35 15.67 145.22 16.31L145.22 16.31L145.22 16.31Q144.75 16.20 144.40 15.90L144.40 15.90L144.40 15.90Q144.05 15.61 143.74 15.08L143.74 15.08L143.74 15.08Q143.79 14.95 143.86 14.83L143.86 14.83L143.86 14.83Q143.92 14.71 144.02 14.50L144.02 14.50L144.02 14.50Q144.12 14.28 144.26 13.94L144.26 13.94L144.26 13.94Q144.41 13.61 144.66 13.05L144.66 13.05L144.66 13.05Q144.90 12.49 145.24 11.68L145.24 11.68L145.24 11.68Q145.59 10.86 146.08 9.70L146.08 9.70L146.08 9.70Q146.30 9.18 146.46 8.79L146.46 8.79L146.46 8.79Q146.62 8.40 146.75 8.04L146.75 8.04L146.75 8.04Q146.87 7.69 146.98 7.33L146.98 7.33L146.98 7.33Q147.08 6.97 147.20 6.51L147.20 6.51L147.20 6.51Q146.55 6.73 146.00 7.01L146.00 7.01L146.00 7.01Q145.45 7.28 145.08 7.59L145.08 7.59L145.08 7.59Q144.96 7.50 144.82 7.34L144.82 7.34L144.82 7.34Q144.69 7.17 144.58 6.96L144.58 6.96L144.58 6.96Q144.47 6.76 144.38 6.55L144.38 6.55L144.38 6.55Q144.30 6.34 144.28 6.17L144.28 6.17L144.28 6.17Q144.70 5.89 145.31 5.66L145.31 5.66L145.31 5.66Q145.92 5.42 146.61 5.24L146.61 5.24L146.61 5.24Q147.29 5.07 148.01 4.97L148.01 4.97L148.01 4.97Q148.72 4.87 149.34 4.87L149.34 4.87L149.34 4.87Q151.02 4.87 151.94 5.56L151.94 5.56L151.94 5.56Q152.87 6.26 152.87 7.46ZM149.28 6.02L149.45 6.29L149.45 6.29Q149.35 6.41 149.14 6.79L149.14 6.79L149.14 6.79Q148.93 7.17 148.66 7.69L148.66 7.69L148.66 7.69Q148.39 8.22 148.08 8.83L148.08 8.83L148.08 8.83Q147.78 9.45 147.50 10.05L147.50 10.05L147.50 10.05Q148.55 10.05 149.44 9.86L149.44 9.86L149.44 9.86Q150.32 9.66 150.96 9.30L150.96 9.30L150.96 9.30Q151.61 8.95 151.96 8.46L151.96 8.46L151.96 8.46Q152.32 7.98 152.32 7.39L152.32 7.39L152.32 7.39Q152.32 6.69 151.82 6.32L151.82 6.32L151.82 6.32Q151.31 5.95 150.26 5.95L150.26 5.95L150.26 5.95Q150.02 5.95 149.79 5.97L149.79 5.97L149.79 5.97Q149.55 5.99 149.28 6.02L149.28 6.02ZM173.12 6.69L173.12 6.69L173.12 6.69Q172.56 6.69 172.26 6.38L172.26 6.38L172.26 6.38Q171.96 6.06 171.96 5.61L171.96 5.61L171.96 5.61Q171.96 5.50 172.00 5.35L172.00 5.35L172.00 5.35Q172.03 5.19 172.09 5.08L172.09 5.08L172.09 5.08Q172.27 5.17 172.63 5.20L172.63 5.20L172.63 5.20Q172.98 5.24 173.46 5.24L173.46 5.24L173.46 5.24Q174.17 5.24 175.08 5.17L175.08 5.17L175.08 5.17Q175.98 5.11 176.81 5.04L176.81 5.04L176.81 5.04Q177.63 4.97 178.26 4.91L178.26 4.91L178.26 4.91Q178.89 4.84 179.07 4.84L179.07 4.84L179.07 4.84Q179.59 4.84 179.82 5.23L179.82 5.23L179.82 5.23Q180.05 5.61 180.17 6.26L180.17 6.26L180.17 6.26Q179.80 6.23 179.44 6.21L179.44 6.21L179.44 6.21Q179.09 6.19 178.84 6.19L178.84 6.19L178.84 6.19Q178.39 6.19 177.93 6.22L177.93 6.22L177.93 6.22Q177.48 6.24 177.02 6.30L177.02 6.30L177.02 6.30Q176.82 6.71 176.58 7.26L176.58 7.26L176.58 7.26Q176.34 7.81 176.11 8.41L176.11 8.41L176.11 8.41Q175.88 9.02 175.67 9.61L175.67 9.61L175.67 9.61Q175.46 10.21 175.31 10.68L175.31 10.68L175.31 10.68Q175 11.61 174.77 12.39L174.77 12.39L174.77 12.39Q174.54 13.17 174.36 13.85L174.36 13.85L174.36 13.85Q174.19 14.53 174.06 15.15L174.06 15.15L174.06 15.15Q173.94 15.76 173.84 16.35L173.84 16.35L173.84 16.35Q172.90 16.21 172.27 15.18L172.27 15.18L172.27 15.18Q172.38 14.74 172.54 14.23L172.54 14.23L172.54 14.23Q172.70 13.72 172.92 13.07L172.92 13.07L172.92 13.07Q173.14 12.42 173.43 11.59L173.43 11.59L173.43 11.59Q173.73 10.77 174.10 9.72L174.10 9.72L174.10 9.72Q174.24 9.32 174.40 8.90L174.40 8.90L174.40 8.90Q174.55 8.47 174.70 8.05L174.70 8.05L174.70 8.05Q174.85 7.63 174.96 7.24L174.96 7.24L174.96 7.24Q175.08 6.85 175.17 6.52L175.17 6.52L175.17 6.52Q174.58 6.59 174.05 6.64L174.05 6.64L174.05 6.64Q173.53 6.69 173.12 6.69ZM192.04 4.98L192.04 4.98L192.04 4.98Q192.30 5.10 192.58 5.27L192.58 5.27L192.58 5.27Q192.86 5.45 193.10 5.63L193.10 5.63L193.10 5.63Q193.34 5.81 193.50 5.98L193.50 5.98L193.50 5.98Q193.66 6.16 193.68 6.27L193.68 6.27L193.68 6.27Q193.44 6.22 193.20 6.20L193.20 6.20L193.20 6.20Q192.96 6.17 192.77 6.17L192.77 6.17L192.77 6.17Q192.14 6.17 191.51 6.48L191.51 6.48L191.51 6.48Q190.89 6.79 190.33 7.32L190.33 7.32L190.33 7.32Q189.77 7.85 189.29 8.57L189.29 8.57L189.29 8.57Q188.82 9.28 188.47 10.09L188.47 10.09L188.47 10.09Q188.13 10.91 187.94 11.77L187.94 11.77L187.94 11.77Q187.74 12.64 187.74 13.48L187.74 13.48L187.74 13.48Q187.74 14.57 188.10 15.11L188.10 15.11L188.10 15.11Q188.47 15.64 189.17 15.64L189.17 15.64L189.17 15.64Q189.50 15.64 189.90 15.51L189.90 15.51L189.90 15.51Q190.29 15.37 190.69 15.13L190.69 15.13L190.69 15.13Q191.10 14.90 191.49 14.56L191.49 14.56L191.49 14.56Q191.88 14.22 192.22 13.82L192.22 13.82L192.22 13.82Q192.71 13.23 193.10 12.48L193.10 12.48L193.10 12.48Q193.49 11.73 193.77 10.89L193.77 10.89L193.77 10.89Q194.04 10.05 194.19 9.16L194.19 9.16L194.19 9.16Q194.33 8.27 194.33 7.42L194.33 7.42L194.33 7.42Q194.33 7.08 194.32 6.85L194.32 6.85L194.32 6.85Q194.31 6.62 194.28 6.46L194.28 6.46L194.28 6.46Q194.26 6.30 194.25 6.20L194.25 6.20L194.25 6.20Q194.24 6.10 194.22 6.03L194.22 6.03L194.22 6.03Q194.39 6.12 194.59 6.24L194.59 6.24L194.59 6.24Q194.80 6.36 194.97 6.59L194.97 6.59L194.97 6.59Q195.15 6.82 195.26 7.20L195.26 7.20L195.26 7.20Q195.38 7.57 195.38 8.18L195.38 8.18L195.38 8.18Q195.38 9.16 195.15 10.10L195.15 10.10L195.15 10.10Q194.92 11.05 194.51 11.90L194.51 11.90L194.51 11.90Q194.10 12.75 193.54 13.50L193.54 13.50L193.54 13.50Q192.98 14.24 192.33 14.80L192.33 14.80L192.33 14.80Q191.49 15.54 190.54 15.95L190.54 15.95L190.54 15.95Q189.59 16.35 188.71 16.35L188.71 16.35L188.71 16.35Q187.42 16.35 186.74 15.53L186.74 15.53L186.74 15.53Q186.06 14.71 186.06 13.12L186.06 13.12L186.06 13.12Q186.06 12.26 186.25 11.31L186.25 11.31L186.25 11.31Q186.44 10.36 186.78 9.44L186.78 9.44L186.78 9.44Q187.12 8.51 187.60 7.68L187.60 7.68L187.60 7.68Q188.08 6.85 188.64 6.21L188.64 6.21L188.64 6.21Q189.21 5.57 189.86 5.19L189.86 5.19L189.86 5.19Q190.51 4.82 191.20 4.82L191.20 4.82L191.20 4.82Q191.42 4.82 191.62 4.85L191.62 4.85L191.62 4.85Q191.81 4.89 192.04 4.98ZM222.68 7.46L222.68 7.46L222.68 7.46Q222.68 8.33 222.21 9.01L222.21 9.01L222.21 9.01Q221.73 9.69 220.91 10.14L220.91 10.14L220.91 10.14Q221.44 10.50 221.75 11.03L221.75 11.03L221.75 11.03Q222.07 11.55 222.07 12.18L222.07 12.18L222.07 12.18Q222.07 12.94 221.61 13.67L221.61 13.67L221.61 13.67Q221.16 14.41 220.40 14.97L220.40 14.97L220.40 14.97Q219.65 15.54 218.68 15.89L218.68 15.89L218.68 15.89Q217.71 16.24 216.71 16.24L216.71 16.24L216.71 16.24Q215.61 16.24 214.79 15.83L214.79 15.83L214.79 15.83Q213.98 15.41 213.51 14.66L213.51 14.66L213.51 14.66Q213.65 14.24 213.88 13.62L213.88 13.62L213.88 13.62Q214.12 12.99 214.40 12.30L214.40 12.30L214.40 12.30Q214.68 11.61 214.96 10.92L214.96 10.92L214.96 10.92Q215.25 10.23 215.50 9.69L215.50 9.69L215.50 9.69Q216.03 8.50 216.45 7.71L216.45 7.71L216.45 7.71Q216.87 6.93 217.22 6.47L217.22 6.47L217.22 6.47Q216.45 6.71 215.82 7.01L215.82 7.01L215.82 7.01Q215.19 7.31 214.90 7.59L214.90 7.59L214.90 7.59Q214.77 7.50 214.64 7.34L214.64 7.34L214.64 7.34Q214.51 7.17 214.39 6.96L214.39 6.96L214.39 6.96Q214.27 6.76 214.19 6.55L214.19 6.55L214.19 6.55Q214.12 6.34 214.10 6.17L214.10 6.17L214.10 6.17Q214.47 5.92 215.05 5.69L215.05 5.69L215.05 5.69Q215.63 5.46 216.31 5.29L216.31 5.29L216.31 5.29Q217.00 5.12 217.72 5.03L217.72 5.03L217.72 5.03Q218.44 4.93 219.10 4.93L219.10 4.93L219.10 4.93Q220.78 4.93 221.73 5.60L221.73 5.60L221.73 5.60Q222.68 6.27 222.68 7.46ZM217.35 10.81L217.35 10.81L217.35 10.81Q217.08 10.68 216.86 10.43L216.86 10.43L216.86 10.43Q216.54 11.14 216.25 11.83L216.25 11.83L216.25 11.83Q215.96 12.52 215.74 13.10L215.74 13.10L215.74 13.10Q215.52 13.69 215.38 14.13L215.38 14.13L215.38 14.13Q215.24 14.56 215.22 14.76L215.22 14.76L215.22 14.76Q215.42 14.87 215.69 14.92L215.69 14.92L215.69 14.92Q215.96 14.98 216.37 14.98L216.37 14.98L216.37 14.98Q217.32 14.98 218.19 14.71L218.19 14.71L218.19 14.71Q219.06 14.45 219.72 13.99L219.72 13.99L219.72 13.99Q220.37 13.54 220.77 12.95L220.77 12.95L220.77 12.95Q221.16 12.36 221.16 11.72L221.16 11.72L221.16 11.72Q221.16 10.79 220.36 10.39L220.36 10.39L220.36 10.39Q219.27 10.84 217.90 10.84L217.90 10.84L217.90 10.84Q217.70 10.84 217.59 10.84L217.59 10.84L217.59 10.84Q217.49 10.84 217.35 10.81ZM220.07 5.95L220.07 5.95L220.07 5.95Q219.77 5.95 219.44 5.98L219.44 5.98L219.44 5.98Q219.11 6.02 218.75 6.09L218.75 6.09L218.75 6.09Q218.81 6.15 218.84 6.21L218.84 6.21L218.84 6.21Q218.88 6.27 218.90 6.34L218.90 6.34L218.90 6.34Q218.78 6.51 218.60 6.83L218.60 6.83L218.60 6.83Q218.41 7.15 218.19 7.58L218.19 7.58L218.19 7.58Q217.97 8.01 217.72 8.53L217.72 8.53L217.72 8.53Q217.48 9.04 217.22 9.59L217.22 9.59L217.22 9.59Q217.46 9.53 217.80 9.50L217.80 9.50L217.80 9.50Q218.15 9.46 218.48 9.46L218.48 9.46L218.48 9.46Q218.67 9.46 218.84 9.48L218.84 9.48L218.84 9.48Q219.02 9.49 219.18 9.52L219.18 9.52L219.18 9.52Q219.86 9.41 220.39 9.19L220.39 9.19L220.39 9.19Q220.93 8.97 221.33 8.69L221.33 8.69L221.33 8.69Q221.72 8.40 221.93 8.05L221.93 8.05L221.93 8.05Q222.14 7.70 222.14 7.31L222.14 7.31L222.14 7.31Q222.14 6.64 221.61 6.29L221.61 6.29L221.61 6.29Q221.07 5.95 220.07 5.95ZM235.48 5.75L235.48 5.75L235.48 5.75Q234.86 6.58 234.36 7.57L234.36 7.57L234.36 7.57Q233.86 8.57 233.50 9.61L233.50 9.61L233.50 9.61Q233.14 10.65 232.95 11.67L232.95 11.67L232.95 11.67Q232.76 12.68 232.76 13.57L232.76 13.57L232.76 13.57Q232.76 14.66 233.09 15.15L233.09 15.15L233.09 15.15Q233.41 15.64 234.19 15.64L234.19 15.64L234.19 15.64Q235.10 15.64 235.79 15.00L235.79 15.00L235.79 15.00Q236.47 14.36 237.08 13.24L237.08 13.24L237.08 13.24Q237.47 12.52 237.75 11.65L237.75 11.65L237.75 11.65Q238.03 10.78 238.20 9.86L238.20 9.86L238.20 9.86Q238.38 8.95 238.46 8.02L238.46 8.02L238.46 8.02Q238.55 7.08 238.55 6.23L238.55 6.23L238.55 6.23Q238.55 5.68 238.53 5.43L238.53 5.43L238.53 5.43Q238.52 5.18 238.49 5.03L238.49 5.03L238.49 5.03Q238.53 5.03 238.70 5.05L238.70 5.05L238.70 5.05Q238.87 5.08 239.08 5.12L239.08 5.12L239.08 5.12Q239.30 5.17 239.52 5.24L239.52 5.24L239.52 5.24Q239.74 5.31 239.89 5.39L239.89 5.39L239.89 5.39Q239.82 6.45 239.63 7.59L239.63 7.59L239.63 7.59Q239.44 8.72 239.13 9.83L239.13 9.83L239.13 9.83Q238.83 10.93 238.42 11.96L238.42 11.96L238.42 11.96Q238.01 12.98 237.51 13.79L237.51 13.79L237.51 13.79Q236.77 14.99 235.84 15.67L235.84 15.67L235.84 15.67Q234.92 16.35 233.66 16.35L233.66 16.35L233.66 16.35Q232.37 16.35 231.66 15.60L231.66 15.60L231.66 15.60Q230.94 14.85 230.94 13.33L230.94 13.33L230.94 13.33Q230.94 12.45 231.14 11.33L231.14 11.33L231.14 11.33Q231.34 10.22 231.66 9.07L231.66 9.07L231.66 9.07Q231.99 7.91 232.43 6.81L232.43 6.81L232.43 6.81Q232.86 5.71 233.34 4.84L233.34 4.84L233.34 4.84Q233.58 4.86 233.90 4.94L233.90 4.94L233.90 4.94Q234.22 5.03 234.53 5.16L234.53 5.16L234.53 5.16Q234.84 5.29 235.09 5.45L235.09 5.45L235.09 5.45Q235.35 5.61 235.48 5.75ZM256.38 7.46L256.38 7.46L256.38 7.46Q256.38 8.13 256.08 8.73L256.08 8.73L256.08 8.73Q255.78 9.32 255.25 9.79L255.25 9.79L255.25 9.79Q254.72 10.26 254.00 10.58L254.00 10.58L254.00 10.58Q253.29 10.91 252.45 11.02L252.45 11.02L252.45 11.02Q252.66 11.65 252.96 12.31L252.96 12.31L252.96 12.31Q253.26 12.98 253.61 13.59L253.61 13.59L253.61 13.59Q253.96 14.21 254.34 14.73L254.34 14.73L254.34 14.73Q254.72 15.25 255.08 15.58L255.08 15.58L255.08 15.58Q255.01 15.72 254.88 15.86L254.88 15.86L254.88 15.86Q254.74 16.00 254.57 16.12L254.57 16.12L254.57 16.12Q254.39 16.24 254.20 16.32L254.20 16.32L254.20 16.32Q254.02 16.39 253.85 16.39L253.85 16.39L253.85 16.39Q253.54 16.39 253.26 16.10L253.26 16.10L253.26 16.10Q252.98 15.81 252.69 15.17L252.69 15.17L252.69 15.17Q252.41 14.53 252.09 13.52L252.09 13.52L252.09 13.52Q251.78 12.50 251.40 11.07L251.40 11.07L251.40 11.07Q251.24 11.07 251.09 11.07L251.09 11.07L251.09 11.07Q250.94 11.07 250.85 11.05L250.85 11.05L250.85 11.05Q250.75 10.99 250.64 10.85L250.64 10.85L250.64 10.85Q250.26 11.66 249.97 12.38L249.97 12.38L249.97 12.38Q249.68 13.09 249.44 13.76L249.44 13.76L249.44 13.76Q249.21 14.42 249.04 15.04L249.04 15.04L249.04 15.04Q248.86 15.67 248.74 16.31L248.74 16.31L248.74 16.31Q248.26 16.20 247.91 15.90L247.91 15.90L247.91 15.90Q247.56 15.61 247.25 15.08L247.25 15.08L247.25 15.08Q247.31 14.95 247.37 14.83L247.37 14.83L247.37 14.83Q247.44 14.71 247.53 14.50L247.53 14.50L247.53 14.50Q247.63 14.28 247.78 13.94L247.78 13.94L247.78 13.94Q247.93 13.61 248.17 13.05L248.17 13.05L248.17 13.05Q248.42 12.49 248.76 11.68L248.76 11.68L248.76 11.68Q249.10 10.86 249.59 9.70L249.59 9.70L249.59 9.70Q249.82 9.18 249.98 8.79L249.98 8.79L249.98 8.79Q250.14 8.40 250.26 8.04L250.26 8.04L250.26 8.04Q250.39 7.69 250.49 7.33L250.49 7.33L250.49 7.33Q250.60 6.97 250.71 6.51L250.71 6.51L250.71 6.51Q250.07 6.73 249.51 7.01L249.51 7.01L249.51 7.01Q248.96 7.28 248.60 7.59L248.60 7.59L248.60 7.59Q248.47 7.50 248.34 7.34L248.34 7.34L248.34 7.34Q248.21 7.17 248.09 6.96L248.09 6.96L248.09 6.96Q247.98 6.76 247.90 6.55L247.90 6.55L247.90 6.55Q247.81 6.34 247.80 6.17L247.80 6.17L247.80 6.17Q248.22 5.89 248.83 5.66L248.83 5.66L248.83 5.66Q249.44 5.42 250.12 5.24L250.12 5.24L250.12 5.24Q250.81 5.07 251.52 4.97L251.52 4.97L251.52 4.97Q252.24 4.87 252.85 4.87L252.85 4.87L252.85 4.87Q254.53 4.87 255.46 5.56L255.46 5.56L255.46 5.56Q256.38 6.26 256.38 7.46ZM252.80 6.02L252.97 6.29L252.97 6.29Q252.87 6.41 252.66 6.79L252.66 6.79L252.66 6.79Q252.45 7.17 252.17 7.69L252.17 7.69L252.17 7.69Q251.90 8.22 251.60 8.83L251.60 8.83L251.60 8.83Q251.30 9.45 251.02 10.05L251.02 10.05L251.02 10.05Q252.07 10.05 252.95 9.86L252.95 9.86L252.95 9.86Q253.83 9.66 254.48 9.30L254.48 9.30L254.48 9.30Q255.12 8.95 255.48 8.46L255.48 8.46L255.48 8.46Q255.84 7.98 255.84 7.39L255.84 7.39L255.84 7.39Q255.84 6.69 255.33 6.32L255.33 6.32L255.33 6.32Q254.83 5.95 253.78 5.95L253.78 5.95L253.78 5.95Q253.54 5.95 253.30 5.97L253.30 5.97L253.30 5.97Q253.06 5.99 252.80 6.02L252.80 6.02ZM264.78 16.24L264.78 16.24L264.78 16.24Q263.98 16.00 263.70 15.79L263.70 15.79L263.70 15.79Q263.42 15.57 263.42 15.19L263.42 15.19L263.42 15.19Q263.42 14.77 263.62 14.01L263.62 14.01L263.62 14.01Q263.82 13.24 264.13 12.31L264.13 12.31L264.13 12.31Q264.45 11.37 264.85 10.35L264.85 10.35L264.85 10.35Q265.26 9.32 265.68 8.39L265.68 8.39L265.68 8.39Q266.10 7.45 266.50 6.67L266.50 6.67L266.50 6.67Q266.90 5.89 267.20 5.46L267.20 5.46L267.11 4.87L267.11 4.87Q267.30 4.87 267.65 4.97L267.65 4.97L267.65 4.97Q268.00 5.07 268.36 5.21L268.36 5.21L268.36 5.21Q268.72 5.35 268.99 5.49L268.99 5.49L268.99 5.49Q269.26 5.64 269.29 5.74L269.29 5.74L269.29 5.74Q269.22 6.08 269.18 6.76L269.18 6.76L269.18 6.76Q269.14 7.43 269.14 8.20L269.14 8.20L269.14 8.20Q269.14 9.73 269.25 11.19L269.25 11.19L269.25 11.19Q269.37 12.66 269.81 14.17L269.81 14.17L269.81 14.17Q270.03 13.05 270.29 11.94L270.29 11.94L270.29 11.94Q270.55 10.82 270.83 9.81L270.83 9.81L270.83 9.81Q271.11 8.79 271.39 7.92L271.39 7.92L271.39 7.92Q271.67 7.06 271.93 6.40L271.93 6.40L271.93 6.40Q272.19 5.75 272.41 5.38L272.41 5.38L272.41 5.38Q272.64 5.01 272.82 4.98L272.82 4.98L272.82 4.98Q272.97 5.01 273.15 5.10L273.15 5.10L273.15 5.10Q273.34 5.19 273.50 5.32L273.50 5.32L273.50 5.32Q273.67 5.45 273.81 5.60L273.81 5.60L273.81 5.60Q273.95 5.75 274.04 5.91L274.04 5.91L274.04 5.91Q273.59 6.09 273.15 6.76L273.15 6.76L273.15 6.76Q272.71 7.43 272.31 8.39L272.31 8.39L272.31 8.39Q271.91 9.35 271.56 10.47L271.56 10.47L271.56 10.47Q271.22 11.59 270.96 12.68L270.96 12.68L270.96 12.68Q270.70 13.76 270.56 14.69L270.56 14.69L270.56 14.69Q270.41 15.61 270.40 16.17L270.40 16.17L270.40 16.17Q270.40 16.20 270.41 16.21L270.41 16.21L270.41 16.21Q270.37 16.23 270.32 16.23L270.32 16.23L270.32 16.23Q270.27 16.23 270.23 16.23L270.23 16.23L270.23 16.23Q269.58 16.23 269.09 16.07L269.09 16.07L269.09 16.07Q268.59 15.90 268.44 15.61L268.44 15.61L268.44 15.61Q268.14 14.43 267.95 13.34L267.95 13.34L267.95 13.34Q267.75 12.25 267.62 11.16L267.62 11.16L267.62 11.16Q267.48 10.07 267.41 8.95L267.41 8.95L267.41 8.95Q267.33 7.84 267.29 6.62L267.29 6.62L267.29 6.62Q267.02 7.04 266.73 7.72L266.73 7.72L266.73 7.72Q266.43 8.40 266.15 9.21L266.15 9.21L266.15 9.21Q265.87 10.02 265.61 10.92L265.61 10.92L265.61 10.92Q265.36 11.82 265.16 12.67L265.16 12.67L265.16 12.67Q264.96 13.52 264.85 14.29L264.85 14.29L264.85 14.29Q264.74 15.05 264.74 15.61L264.74 15.61L264.74 15.61Q264.74 15.90 264.75 16.03L264.75 16.03L264.75 16.03Q264.75 16.16 264.78 16.24ZM296.88 4.98L296.88 4.98L296.88 4.98Q297.15 5.10 297.43 5.27L297.43 5.27L297.43 5.27Q297.71 5.45 297.95 5.63L297.95 5.63L297.95 5.63Q298.19 5.81 298.35 5.98L298.35 5.98L298.35 5.98Q298.51 6.16 298.52 6.27L298.52 6.27L298.52 6.27Q298.28 6.22 298.05 6.20L298.05 6.20L298.05 6.20Q297.81 6.17 297.61 6.17L297.61 6.17L297.61 6.17Q296.98 6.17 296.36 6.48L296.36 6.48L296.36 6.48Q295.74 6.79 295.18 7.32L295.18 7.32L295.18 7.32Q294.62 7.85 294.14 8.57L294.14 8.57L294.14 8.57Q293.66 9.28 293.32 10.09L293.32 10.09L293.32 10.09Q292.98 10.91 292.78 11.77L292.78 11.77L292.78 11.77Q292.59 12.64 292.59 13.48L292.59 13.48L292.59 13.48Q292.59 14.57 292.95 15.11L292.95 15.11L292.95 15.11Q293.31 15.64 294.01 15.64L294.01 15.64L294.01 15.64Q294.35 15.64 294.74 15.51L294.74 15.51L294.74 15.51Q295.13 15.37 295.54 15.13L295.54 15.13L295.54 15.13Q295.95 14.90 296.34 14.56L296.34 14.56L296.34 14.56Q296.73 14.22 297.07 13.82L297.07 13.82L297.07 13.82Q297.56 13.23 297.95 12.48L297.95 12.48L297.95 12.48Q298.34 11.73 298.61 10.89L298.61 10.89L298.61 10.89Q298.89 10.05 299.03 9.16L299.03 9.16L299.03 9.16Q299.18 8.27 299.18 7.42L299.18 7.42L299.18 7.42Q299.18 7.08 299.17 6.85L299.17 6.85L299.17 6.85Q299.15 6.62 299.13 6.46L299.13 6.46L299.13 6.46Q299.11 6.30 299.10 6.20L299.10 6.20L299.10 6.20Q299.08 6.10 299.07 6.03L299.07 6.03L299.07 6.03Q299.24 6.12 299.44 6.24L299.44 6.24L299.44 6.24Q299.64 6.36 299.82 6.59L299.82 6.59L299.82 6.59Q299.99 6.82 300.11 7.20L300.11 7.20L300.11 7.20Q300.23 7.57 300.23 8.18L300.23 8.18L300.23 8.18Q300.23 9.16 300.00 10.10L300.00 10.10L300.00 10.10Q299.77 11.05 299.35 11.90L299.35 11.90L299.35 11.90Q298.94 12.75 298.38 13.50L298.38 13.50L298.38 13.50Q297.82 14.24 297.18 14.80L297.18 14.80L297.18 14.80Q296.34 15.54 295.39 15.95L295.39 15.95L295.39 15.95Q294.43 16.35 293.55 16.35L293.55 16.35L293.55 16.35Q292.26 16.35 291.58 15.53L291.58 15.53L291.58 15.53Q290.91 14.71 290.91 13.12L290.91 13.12L290.91 13.12Q290.91 12.26 291.09 11.31L291.09 11.31L291.09 11.31Q291.28 10.36 291.63 9.44L291.63 9.44L291.63 9.44Q291.97 8.51 292.45 7.68L292.45 7.68L292.45 7.68Q292.92 6.85 293.49 6.21L293.49 6.21L293.49 6.21Q294.06 5.57 294.71 5.19L294.71 5.19L294.71 5.19Q295.36 4.82 296.04 4.82L296.04 4.82L296.04 4.82Q296.27 4.82 296.46 4.85L296.46 4.85L296.46 4.85Q296.66 4.89 296.88 4.98ZM312.93 5.75L312.93 5.75L312.93 5.75Q312.31 6.58 311.81 7.57L311.81 7.57L311.81 7.57Q311.30 8.57 310.95 9.61L310.95 9.61L310.95 9.61Q310.59 10.65 310.40 11.67L310.40 11.67L310.40 11.67Q310.21 12.68 310.21 13.57L310.21 13.57L310.21 13.57Q310.21 14.66 310.53 15.15L310.53 15.15L310.53 15.15Q310.86 15.64 311.64 15.64L311.64 15.64L311.64 15.64Q312.55 15.64 313.24 15.00L313.24 15.00L313.24 15.00Q313.92 14.36 314.52 13.24L314.52 13.24L314.52 13.24Q314.92 12.52 315.20 11.65L315.20 11.65L315.20 11.65Q315.48 10.78 315.65 9.86L315.65 9.86L315.65 9.86Q315.83 8.95 315.91 8.02L315.91 8.02L315.91 8.02Q315.99 7.08 315.99 6.23L315.99 6.23L315.99 6.23Q315.99 5.68 315.98 5.43L315.98 5.43L315.98 5.43Q315.97 5.18 315.94 5.03L315.94 5.03L315.94 5.03Q315.98 5.03 316.15 5.05L316.15 5.05L316.15 5.05Q316.32 5.08 316.53 5.12L316.53 5.12L316.53 5.12Q316.75 5.17 316.97 5.24L316.97 5.24L316.97 5.24Q317.18 5.31 317.34 5.39L317.34 5.39L317.34 5.39Q317.27 6.45 317.08 7.59L317.08 7.59L317.08 7.59Q316.89 8.72 316.58 9.83L316.58 9.83L316.58 9.83Q316.27 10.93 315.87 11.96L315.87 11.96L315.87 11.96Q315.46 12.98 314.96 13.79L314.96 13.79L314.96 13.79Q314.22 14.99 313.29 15.67L313.29 15.67L313.29 15.67Q312.37 16.35 311.11 16.35L311.11 16.35L311.11 16.35Q309.82 16.35 309.11 15.60L309.11 15.60L309.11 15.60Q308.39 14.85 308.39 13.33L308.39 13.33L308.39 13.33Q308.39 12.45 308.59 11.33L308.59 11.33L308.59 11.33Q308.78 10.22 309.11 9.07L309.11 9.07L309.11 9.07Q309.44 7.91 309.88 6.81L309.88 6.81L309.88 6.81Q310.31 5.71 310.79 4.84L310.79 4.84L310.79 4.84Q311.02 4.86 311.35 4.94L311.35 4.94L311.35 4.94Q311.67 5.03 311.98 5.16L311.98 5.16L311.98 5.16Q312.28 5.29 312.54 5.45L312.54 5.45L312.54 5.45Q312.80 5.61 312.93 5.75ZM326.97 6.69L326.97 6.69L326.97 6.69Q326.41 6.69 326.11 6.38L326.11 6.38L326.11 6.38Q325.81 6.06 325.81 5.61L325.81 5.61L325.81 5.61Q325.81 5.50 325.84 5.35L325.84 5.35L325.84 5.35Q325.88 5.19 325.93 5.08L325.93 5.08L325.93 5.08Q326.12 5.17 326.47 5.20L326.47 5.20L326.47 5.20Q326.83 5.24 327.31 5.24L327.31 5.24L327.31 5.24Q328.02 5.24 328.92 5.17L328.92 5.17L328.92 5.17Q329.83 5.11 330.65 5.04L330.65 5.04L330.65 5.04Q331.48 4.97 332.11 4.91L332.11 4.91L332.11 4.91Q332.74 4.84 332.92 4.84L332.92 4.84L332.92 4.84Q333.44 4.84 333.67 5.23L333.67 5.23L333.67 5.23Q333.90 5.61 334.01 6.26L334.01 6.26L334.01 6.26Q333.65 6.23 333.29 6.21L333.29 6.21L333.29 6.21Q332.93 6.19 332.68 6.19L332.68 6.19L332.68 6.19Q332.23 6.19 331.78 6.22L331.78 6.22L331.78 6.22Q331.32 6.24 330.86 6.30L330.86 6.30L330.86 6.30Q330.67 6.71 330.43 7.26L330.43 7.26L330.43 7.26Q330.19 7.81 329.96 8.41L329.96 8.41L329.96 8.41Q329.73 9.02 329.52 9.61L329.52 9.61L329.52 9.61Q329.31 10.21 329.15 10.68L329.15 10.68L329.15 10.68Q328.85 11.61 328.61 12.39L328.61 12.39L328.61 12.39Q328.38 13.17 328.21 13.85L328.21 13.85L328.21 13.85Q328.03 14.53 327.91 15.15L327.91 15.15L327.91 15.15Q327.78 15.76 327.68 16.35L327.68 16.35L327.68 16.35Q326.75 16.21 326.12 15.18L326.12 15.18L326.12 15.18Q326.23 14.74 326.39 14.23L326.39 14.23L326.39 14.23Q326.55 13.72 326.77 13.07L326.77 13.07L326.77 13.07Q326.98 12.42 327.28 11.59L327.28 11.59L327.28 11.59Q327.57 10.77 327.95 9.72L327.95 9.72L327.95 9.72Q328.09 9.32 328.24 8.90L328.24 8.90L328.24 8.90Q328.40 8.47 328.54 8.05L328.54 8.05L328.54 8.05Q328.69 7.63 328.81 7.24L328.81 7.24L328.81 7.24Q328.93 6.85 329.01 6.52L329.01 6.52L329.01 6.52Q328.43 6.59 327.90 6.64L327.90 6.64L327.90 6.64Q327.38 6.69 326.97 6.69ZM352.53 6.69L352.53 6.69L352.53 6.69Q351.97 6.69 351.67 6.38L351.67 6.38L351.67 6.38Q351.37 6.06 351.37 5.61L351.37 5.61L351.37 5.61Q351.37 5.50 351.41 5.35L351.41 5.35L351.41 5.35Q351.44 5.19 351.50 5.08L351.50 5.08L351.50 5.08Q351.68 5.17 352.04 5.20L352.04 5.20L352.04 5.20Q352.39 5.24 352.87 5.24L352.87 5.24L352.87 5.24Q353.58 5.24 354.49 5.17L354.49 5.17L354.49 5.17Q355.39 5.11 356.22 5.04L356.22 5.04L356.22 5.04Q357.04 4.97 357.67 4.91L357.67 4.91L357.67 4.91Q358.30 4.84 358.48 4.84L358.48 4.84L358.48 4.84Q359.00 4.84 359.23 5.23L359.23 5.23L359.23 5.23Q359.46 5.61 359.58 6.26L359.58 6.26L359.58 6.26Q359.21 6.23 358.85 6.21L358.85 6.21L358.85 6.21Q358.50 6.19 358.25 6.19L358.25 6.19L358.25 6.19Q357.80 6.19 357.34 6.22L357.34 6.22L357.34 6.22Q356.89 6.24 356.43 6.30L356.43 6.30L356.43 6.30Q356.23 6.71 355.99 7.26L355.99 7.26L355.99 7.26Q355.75 7.81 355.52 8.41L355.52 8.41L355.52 8.41Q355.29 9.02 355.08 9.61L355.08 9.61L355.08 9.61Q354.87 10.21 354.72 10.68L354.72 10.68L354.72 10.68Q354.41 11.61 354.18 12.39L354.18 12.39L354.18 12.39Q353.95 13.17 353.77 13.85L353.77 13.85L353.77 13.85Q353.60 14.53 353.47 15.15L353.47 15.15L353.47 15.15Q353.35 15.76 353.25 16.35L353.25 16.35L353.25 16.35Q352.31 16.21 351.68 15.18L351.68 15.18L351.68 15.18Q351.79 14.74 351.95 14.23L351.95 14.23L351.95 14.23Q352.11 13.72 352.33 13.07L352.33 13.07L352.33 13.07Q352.55 12.42 352.84 11.59L352.84 11.59L352.84 11.59Q353.14 10.77 353.51 9.72L353.51 9.72L353.51 9.72Q353.65 9.32 353.81 8.90L353.81 8.90L353.81 8.90Q353.96 8.47 354.11 8.05L354.11 8.05L354.11 8.05Q354.26 7.63 354.37 7.24L354.37 7.24L354.37 7.24Q354.49 6.85 354.58 6.52L354.58 6.52L354.58 6.52Q353.99 6.59 353.46 6.64L353.46 6.64L353.46 6.64Q352.94 6.69 352.53 6.69ZM370.45 14.36L370.45 14.36L370.45 14.36Q370.45 13.78 370.65 12.85L370.65 12.85L370.65 12.85Q370.85 11.93 371.17 10.88L371.17 10.88L371.17 10.88Q370.24 10.95 369.31 11.06L369.31 11.06L369.31 11.06Q368.38 11.17 367.70 11.19L367.70 11.19L367.70 11.19Q367.07 12.66 366.69 13.89L366.69 13.89L366.69 13.89Q366.32 15.13 366.11 16.31L366.11 16.31L366.11 16.31Q365.58 16.18 365.23 15.87L365.23 15.87L365.23 15.87Q364.88 15.55 364.59 15.08L364.59 15.08L364.59 15.08Q364.70 14.85 364.85 14.50L364.85 14.50L364.85 14.50Q364.99 14.15 365.20 13.66L365.20 13.66L365.20 13.66Q365.40 13.16 365.66 12.50L365.66 12.50L365.66 12.50Q365.92 11.83 366.25 10.95L366.25 10.95L366.25 10.95Q365.79 10.75 365.64 10.40L365.64 10.40L365.64 10.40Q365.71 10.35 365.95 10.28L365.95 10.28L365.95 10.28Q366.20 10.22 366.56 10.15L366.56 10.15L366.74 9.70L366.74 9.70Q367.04 8.95 367.23 8.43L367.23 8.43L367.23 8.43Q367.42 7.91 367.55 7.41L367.55 7.41L367.55 7.41Q367.68 6.92 367.80 6.31L367.80 6.31L367.80 6.31Q367.92 5.71 368.09 4.79L368.09 4.79L368.09 4.79Q368.68 4.90 369.16 5.31L369.16 5.31L369.16 5.31Q369.64 5.71 369.99 6.29L369.99 6.29L369.99 6.29Q369.87 6.45 369.68 6.79L369.68 6.79L369.68 6.79Q369.50 7.13 369.28 7.59L369.28 7.59L369.28 7.59Q369.07 8.06 368.82 8.64L368.82 8.64L368.82 8.64Q368.56 9.23 368.27 9.87L368.27 9.87L368.27 9.87Q369.14 9.76 370.03 9.66L370.03 9.66L370.03 9.66Q370.92 9.56 371.60 9.52L371.60 9.52L371.60 9.52Q371.85 8.79 372.13 8.10L372.13 8.10L372.13 8.10Q372.40 7.41 372.67 6.83L372.67 6.83L372.67 6.83Q372.93 6.26 373.18 5.82L373.18 5.82L373.18 5.82Q373.42 5.39 373.62 5.18L373.62 5.18L373.62 5.18Q373.76 5.19 373.99 5.29L373.99 5.29L373.99 5.29Q374.22 5.38 374.46 5.50L374.46 5.50L374.46 5.50Q374.70 5.63 374.89 5.78L374.89 5.78L374.89 5.78Q375.09 5.92 375.16 6.05L375.16 6.05L375.16 6.05Q374.91 6.29 374.65 6.66L374.65 6.66L374.65 6.66Q374.40 7.04 374.16 7.53L374.16 7.53L374.16 7.53Q373.91 8.02 373.67 8.60L373.67 8.60L373.67 8.60Q373.44 9.17 373.23 9.79L373.23 9.79L373.23 9.79Q373.51 10.04 373.51 10.42L373.51 10.42L373.51 10.42Q373.51 10.68 373.39 10.91L373.39 10.91L373.39 10.91Q373.27 10.88 373.14 10.87L373.14 10.87L373.14 10.87Q373.02 10.86 372.88 10.85L372.88 10.85L372.88 10.85Q372.64 11.61 372.44 12.35L372.44 12.35L372.44 12.35Q372.25 13.09 372.11 13.76L372.11 13.76L372.11 13.76Q371.98 14.43 371.90 14.99L371.90 14.99L371.90 14.99Q371.83 15.55 371.83 15.93L371.83 15.93L371.83 15.93Q371.83 16.07 371.83 16.16L371.83 16.16L371.83 16.16Q371.84 16.24 371.85 16.30L371.85 16.30L371.85 16.30Q371.55 16.28 371.41 16.19L371.41 16.19L371.41 16.19Q371.27 16.10 371.20 16.00L371.20 16.00L371.20 16.00Q371.13 15.89 371.07 15.79L371.07 15.79L371.07 15.79Q371.01 15.68 370.89 15.62L370.89 15.62L370.89 15.62Q370.79 15.58 370.71 15.43L370.71 15.43L370.71 15.43Q370.62 15.27 370.57 15.08L370.57 15.08L370.57 15.08Q370.51 14.88 370.48 14.69L370.48 14.69L370.48 14.69Q370.45 14.49 370.45 14.36ZM382.07 16.24L382.07 16.24L382.07 16.24Q381.40 16.04 381.14 15.85L381.14 15.85L381.14 15.85Q380.88 15.65 380.88 15.36L380.88 15.36L380.88 15.36Q380.88 15.13 381.01 14.73L381.01 14.73L381.01 14.73Q381.14 14.32 381.38 13.77L381.38 13.77L381.38 13.77Q381.63 13.22 381.97 12.54L381.97 12.54L381.97 12.54Q382.31 11.87 382.75 11.10L382.75 11.10L382.75 11.10Q382.38 11.09 382.09 11.08L382.09 11.08L382.09 11.08Q381.81 11.07 381.63 11.07L381.63 11.07L381.63 11.07Q381.71 10.86 382.10 10.71L382.10 10.71L382.10 10.71Q382.49 10.56 383.14 10.44L383.14 10.44L383.14 10.44Q383.68 9.53 384.31 8.71L384.31 8.71L384.31 8.71Q384.93 7.88 385.56 7.19L385.56 7.19L385.56 7.19Q386.19 6.50 386.82 5.97L386.82 5.97L386.82 5.97Q387.45 5.45 388.02 5.14L388.02 5.14L388.02 5.14Q388.04 5.04 388.04 4.97L388.04 4.97L388.04 4.97Q388.05 4.90 388.05 4.87L388.05 4.87L388.05 4.87Q388.25 4.87 388.58 4.97L388.58 4.97L388.58 4.97Q388.91 5.07 389.22 5.21L389.22 5.21L389.22 5.21Q389.54 5.35 389.78 5.49L389.78 5.49L389.78 5.49Q390.03 5.64 390.05 5.74L390.05 5.74L390.05 5.74Q389.59 6.55 389.14 8.17L389.14 8.17L389.14 8.17Q388.70 9.79 388.40 12.04L388.40 12.04L388.40 12.04Q388.33 12.60 388.28 13.31L388.28 13.31L388.28 13.31Q388.23 14.03 388.23 14.91L388.23 14.91L388.23 14.91Q388.23 15.22 388.23 15.54L388.23 15.54L388.23 15.54Q388.23 15.86 388.26 16.21L388.26 16.21L388.26 16.21Q388.23 16.23 388.21 16.23L388.21 16.23L388.21 16.23Q388.18 16.23 388.09 16.23L388.09 16.23L388.09 16.23Q387.90 16.23 387.64 16.16L387.64 16.16L387.64 16.16Q387.38 16.10 387.13 16.01L387.13 16.01L387.13 16.01Q386.89 15.92 386.71 15.81L386.71 15.81L386.71 15.81Q386.54 15.69 386.50 15.61L386.50 15.61L386.50 15.61Q386.48 15.43 386.48 15.25L386.48 15.25L386.48 15.25Q386.48 15.08 386.48 14.88L386.48 14.88L386.48 14.88Q386.48 14.01 386.55 13.12L386.55 13.12L386.55 13.12Q386.61 12.22 386.76 11.27L386.76 11.27L386.76 11.27Q386.57 11.26 386.25 11.23L386.25 11.23L386.25 11.23Q385.92 11.21 385.52 11.20L385.52 11.20L385.52 11.20Q385.13 11.19 384.67 11.16L384.67 11.16L384.67 11.16Q384.22 11.14 383.78 11.13L383.78 11.13L383.78 11.13Q383.45 11.76 383.15 12.38L383.15 12.38L383.15 12.38Q382.86 13.01 382.65 13.64L382.65 13.64L382.65 13.64Q382.41 14.31 382.26 14.98L382.26 14.98L382.26 14.98Q382.12 15.65 382.07 16.24ZM387.48 7.83L387.48 7.83L387.48 7.83Q387.53 7.63 387.61 7.29L387.61 7.29L387.61 7.29Q387.69 6.94 387.76 6.57L387.76 6.57L387.76 6.57Q387.41 6.69 386.98 7.03L386.98 7.03L386.98 7.03Q386.55 7.36 386.10 7.86L386.10 7.86L386.10 7.86Q385.64 8.36 385.17 8.98L385.17 8.98L385.17 8.98Q384.71 9.60 384.27 10.30L384.27 10.30L384.27 10.30Q385.45 10.21 386.95 10.18L386.95 10.18L386.95 10.18Q387.06 9.59 387.19 9.01L387.19 9.01L387.19 9.01Q387.32 8.43 387.48 7.83ZM398.68 16.24L398.68 16.24L398.68 16.24Q397.88 16.00 397.60 15.79L397.60 15.79L397.60 15.79Q397.32 15.57 397.32 15.19L397.32 15.19L397.32 15.19Q397.32 14.77 397.52 14.01L397.52 14.01L397.52 14.01Q397.71 13.24 398.03 12.31L398.03 12.31L398.03 12.31Q398.34 11.37 398.75 10.35L398.75 10.35L398.75 10.35Q399.15 9.32 399.57 8.39L399.57 8.39L399.57 8.39Q399.99 7.45 400.39 6.67L400.39 6.67L400.39 6.67Q400.79 5.89 401.10 5.46L401.10 5.46L401.00 4.87L401.00 4.87Q401.20 4.87 401.55 4.97L401.55 4.97L401.55 4.97Q401.90 5.07 402.25 5.21L402.25 5.21L402.25 5.21Q402.61 5.35 402.88 5.49L402.88 5.49L402.88 5.49Q403.16 5.64 403.19 5.74L403.19 5.74L403.19 5.74Q403.12 6.08 403.07 6.76L403.07 6.76L403.07 6.76Q403.03 7.43 403.03 8.20L403.03 8.20L403.03 8.20Q403.03 9.73 403.15 11.19L403.15 11.19L403.15 11.19Q403.27 12.66 403.70 14.17L403.70 14.17L403.70 14.17Q403.93 13.05 404.19 11.94L404.19 11.94L404.19 11.94Q404.45 10.82 404.73 9.81L404.73 9.81L404.73 9.81Q405.01 8.79 405.29 7.92L405.29 7.92L405.29 7.92Q405.57 7.06 405.82 6.40L405.82 6.40L405.82 6.40Q406.08 5.75 406.31 5.38L406.31 5.38L406.31 5.38Q406.53 5.01 406.71 4.98L406.71 4.98L406.71 4.98Q406.87 5.01 407.05 5.10L407.05 5.10L407.05 5.10Q407.23 5.19 407.40 5.32L407.40 5.32L407.40 5.32Q407.57 5.45 407.71 5.60L407.71 5.60L407.71 5.60Q407.85 5.75 407.93 5.91L407.93 5.91L407.93 5.91Q407.48 6.09 407.04 6.76L407.04 6.76L407.04 6.76Q406.60 7.43 406.20 8.39L406.20 8.39L406.20 8.39Q405.80 9.35 405.46 10.47L405.46 10.47L405.46 10.47Q405.12 11.59 404.86 12.68L404.86 12.68L404.86 12.68Q404.60 13.76 404.45 14.69L404.45 14.69L404.45 14.69Q404.31 15.61 404.29 16.17L404.29 16.17L404.29 16.17Q404.29 16.20 404.31 16.21L404.31 16.21L404.31 16.21Q404.26 16.23 404.21 16.23L404.21 16.23L404.21 16.23Q404.17 16.23 404.12 16.23L404.12 16.23L404.12 16.23Q403.48 16.23 402.98 16.07L402.98 16.07L402.98 16.07Q402.49 15.90 402.33 15.61L402.33 15.61L402.33 15.61Q402.04 14.43 401.84 13.34L401.84 13.34L401.84 13.34Q401.65 12.25 401.51 11.16L401.51 11.16L401.51 11.16Q401.38 10.07 401.30 8.95L401.30 8.95L401.30 8.95Q401.23 7.84 401.18 6.62L401.18 6.62L401.18 6.62Q400.92 7.04 400.62 7.72L400.62 7.72L400.62 7.72Q400.33 8.40 400.05 9.21L400.05 9.21L400.05 9.21Q399.77 10.02 399.51 10.92L399.51 10.92L399.51 10.92Q399.25 11.82 399.06 12.67L399.06 12.67L399.06 12.67Q398.86 13.52 398.75 14.29L398.75 14.29L398.75 14.29Q398.64 15.05 398.64 15.61L398.64 15.61L398.64 15.61Q398.64 15.90 398.64 16.03L398.64 16.03L398.64 16.03Q398.65 16.16 398.68 16.24ZM427.10 6.69L427.10 6.69L427.10 6.69Q426.54 6.69 426.24 6.38L426.24 6.38L426.24 6.38Q425.94 6.06 425.94 5.61L425.94 5.61L425.94 5.61Q425.94 5.50 425.97 5.35L425.97 5.35L425.97 5.35Q426.01 5.19 426.06 5.08L426.06 5.08L426.06 5.08Q426.24 5.17 426.60 5.20L426.60 5.20L426.60 5.20Q426.96 5.24 427.43 5.24L427.43 5.24L427.43 5.24Q428.15 5.24 429.05 5.17L429.05 5.17L429.05 5.17Q429.95 5.11 430.78 5.04L430.78 5.04L430.78 5.04Q431.61 4.97 432.24 4.91L432.24 4.91L432.24 4.91Q432.87 4.84 433.05 4.84L433.05 4.84L433.05 4.84Q433.57 4.84 433.80 5.23L433.80 5.23L433.80 5.23Q434.03 5.61 434.14 6.26L434.14 6.26L434.14 6.26Q433.78 6.23 433.42 6.21L433.42 6.21L433.42 6.21Q433.06 6.19 432.81 6.19L432.81 6.19L432.81 6.19Q432.36 6.19 431.91 6.22L431.91 6.22L431.91 6.22Q431.45 6.24 430.99 6.30L430.99 6.30L430.99 6.30Q430.79 6.71 430.56 7.26L430.56 7.26L430.56 7.26Q430.32 7.81 430.09 8.41L430.09 8.41L430.09 8.41Q429.86 9.02 429.65 9.61L429.65 9.61L429.65 9.61Q429.44 10.21 429.28 10.68L429.28 10.68L429.28 10.68Q428.97 11.61 428.74 12.39L428.74 12.39L428.74 12.39Q428.51 13.17 428.34 13.85L428.34 13.85L428.34 13.85Q428.16 14.53 428.04 15.15L428.04 15.15L428.04 15.15Q427.91 15.76 427.81 16.35L427.81 16.35L427.81 16.35Q426.87 16.21 426.24 15.18L426.24 15.18L426.24 15.18Q426.36 14.74 426.52 14.23L426.52 14.23L426.52 14.23Q426.68 13.72 426.89 13.07L426.89 13.07L426.89 13.07Q427.11 12.42 427.41 11.59L427.41 11.59L427.41 11.59Q427.70 10.77 428.08 9.72L428.08 9.72L428.08 9.72Q428.22 9.32 428.37 8.90L428.37 8.90L428.37 8.90Q428.53 8.47 428.67 8.05L428.67 8.05L428.67 8.05Q428.82 7.63 428.94 7.24L428.94 7.24L428.94 7.24Q429.06 6.85 429.14 6.52L429.14 6.52L429.14 6.52Q428.55 6.59 428.03 6.64L428.03 6.64L428.03 6.64Q427.50 6.69 427.10 6.69ZM446.01 4.98L446.01 4.98L446.01 4.98Q446.28 5.10 446.56 5.27L446.56 5.27L446.56 5.27Q446.84 5.45 447.08 5.63L447.08 5.63L447.08 5.63Q447.31 5.81 447.47 5.98L447.47 5.98L447.47 5.98Q447.64 6.16 447.65 6.27L447.65 6.27L447.65 6.27Q447.41 6.22 447.17 6.20L447.17 6.20L447.17 6.20Q446.94 6.17 446.74 6.17L446.74 6.17L446.74 6.17Q446.11 6.17 445.49 6.48L445.49 6.48L445.49 6.48Q444.86 6.79 444.30 7.32L444.30 7.32L444.30 7.32Q443.74 7.85 443.27 8.57L443.27 8.57L443.27 8.57Q442.79 9.28 442.45 10.09L442.45 10.09L442.45 10.09Q442.11 10.91 441.91 11.77L441.91 11.77L441.91 11.77Q441.71 12.64 441.71 13.48L441.71 13.48L441.71 13.48Q441.71 14.57 442.08 15.11L442.08 15.11L442.08 15.11Q442.44 15.64 443.14 15.64L443.14 15.64L443.14 15.64Q443.48 15.64 443.87 15.51L443.87 15.51L443.87 15.51Q444.26 15.37 444.67 15.13L444.67 15.13L444.67 15.13Q445.07 14.90 445.47 14.56L445.47 14.56L445.47 14.56Q445.86 14.22 446.19 13.82L446.19 13.82L446.19 13.82Q446.68 13.23 447.08 12.48L447.08 12.48L447.08 12.48Q447.47 11.73 447.74 10.89L447.74 10.89L447.74 10.89Q448.01 10.05 448.16 9.16L448.16 9.16L448.16 9.16Q448.31 8.27 448.31 7.42L448.31 7.42L448.31 7.42Q448.31 7.08 448.29 6.85L448.29 6.85L448.29 6.85Q448.28 6.62 448.26 6.46L448.26 6.46L448.26 6.46Q448.24 6.30 448.22 6.20L448.22 6.20L448.22 6.20Q448.21 6.10 448.20 6.03L448.20 6.03L448.20 6.03Q448.36 6.12 448.57 6.24L448.57 6.24L448.57 6.24Q448.77 6.36 448.94 6.59L448.94 6.59L448.94 6.59Q449.12 6.82 449.24 7.20L449.24 7.20L449.24 7.20Q449.36 7.57 449.36 8.18L449.36 8.18L449.36 8.18Q449.36 9.16 449.13 10.10L449.13 10.10L449.13 10.10Q448.90 11.05 448.48 11.90L448.48 11.90L448.48 11.90Q448.07 12.75 447.51 13.50L447.51 13.50L447.51 13.50Q446.95 14.24 446.31 14.80L446.31 14.80L446.31 14.80Q445.47 15.54 444.51 15.95L444.51 15.95L444.51 15.95Q443.56 16.35 442.68 16.35L442.68 16.35L442.68 16.35Q441.39 16.35 440.71 15.53L440.71 15.53L440.71 15.53Q440.03 14.71 440.03 13.12L440.03 13.12L440.03 13.12Q440.03 12.26 440.22 11.31L440.22 11.31L440.22 11.31Q440.41 10.36 440.75 9.44L440.75 9.44L440.75 9.44Q441.10 8.51 441.57 7.68L441.57 7.68L441.57 7.68Q442.05 6.85 442.62 6.21L442.62 6.21L442.62 6.21Q443.18 5.57 443.83 5.19L443.83 5.19L443.83 5.19Q444.49 4.82 445.17 4.82L445.17 4.82L445.17 4.82Q445.40 4.82 445.59 4.85L445.59 4.85L445.59 4.85Q445.79 4.89 446.01 4.98ZM472.88 9.34L472.88 9.34L472.88 9.34Q473.33 9.34 473.58 9.59L473.58 9.59L473.58 9.59Q473.84 9.84 473.84 10.29L473.84 10.29L473.84 10.29Q473.84 10.40 473.83 10.52L473.83 10.52L473.83 10.52Q473.82 10.64 473.77 10.72L473.77 10.72L473.77 10.72Q473.59 10.70 473.37 10.68L473.37 10.68L473.37 10.68Q473.14 10.65 472.84 10.65L472.84 10.65L472.84 10.65Q472.21 10.65 471.58 10.77L471.58 10.77L471.58 10.77Q470.95 10.88 470.37 10.95L470.37 10.95L470.37 10.95Q469.74 12.43 469.34 13.73L469.34 13.73L469.34 13.73Q468.93 15.04 468.71 16.31L468.71 16.31L468.71 16.31Q468.23 16.20 467.87 15.90L467.87 15.90L467.87 15.90Q467.50 15.61 467.18 15.08L467.18 15.08L467.18 15.08Q467.28 14.85 467.42 14.54L467.42 14.54L467.42 14.54Q467.56 14.22 467.75 13.74L467.75 13.74L467.75 13.74Q467.95 13.26 468.22 12.56L468.22 12.56L468.22 12.56Q468.50 11.87 468.87 10.91L468.87 10.91L468.87 10.91Q468.29 10.71 468.10 10.22L468.10 10.22L468.10 10.22Q468.17 10.15 468.50 10.06L468.50 10.06L468.50 10.06Q468.82 9.97 469.28 9.86L469.28 9.86L469.28 9.86Q469.49 9.31 469.64 8.88L469.64 8.88L469.64 8.88Q469.80 8.46 469.92 8.07L469.92 8.07L469.92 8.07Q470.05 7.69 470.15 7.32L470.15 7.32L470.15 7.32Q470.26 6.94 470.34 6.52L470.34 6.52L470.27 6.52L470.27 6.52Q469.74 6.52 469.41 6.27L469.41 6.27L469.41 6.27Q469.08 6.02 469.08 5.61L469.08 5.61L469.08 5.61Q469.08 5.50 469.12 5.35L469.12 5.35L469.12 5.35Q469.15 5.19 469.21 5.08L469.21 5.08L469.21 5.08Q469.48 5.12 469.73 5.14L469.73 5.14L469.73 5.14Q469.99 5.15 470.41 5.15L470.41 5.15L470.41 5.15Q471.30 5.15 472.07 5.10L472.07 5.10L472.07 5.10Q472.84 5.05 473.46 5.00L473.46 5.00L473.46 5.00Q474.08 4.94 474.53 4.89L474.53 4.89L474.53 4.89Q474.98 4.84 475.22 4.84L475.22 4.84L475.22 4.84Q475.54 4.84 475.79 5.18L475.79 5.18L475.79 5.18Q476.04 5.52 476.18 6.13L476.18 6.13L476.18 6.13Q475.73 6.09 475.46 6.08L475.46 6.08L475.46 6.08Q475.19 6.06 474.98 6.06L474.98 6.06L474.98 6.06Q474.26 6.06 473.67 6.13L473.67 6.13L473.67 6.13Q473.07 6.19 472.54 6.27L472.54 6.27L472.54 6.27Q472.46 6.40 472.35 6.59L472.35 6.59L472.35 6.59Q472.25 6.79 472.08 7.15L472.08 7.15L472.08 7.15Q471.91 7.50 471.65 8.08L471.65 8.08L471.65 8.08Q471.39 8.65 471.00 9.53L471.00 9.53L471.00 9.53Q471.55 9.45 472.04 9.39L472.04 9.39L472.04 9.39Q472.54 9.34 472.88 9.34ZM482.36 16.24L482.36 16.24L482.36 16.24Q481.68 16.04 481.42 15.85L481.42 15.85L481.42 15.85Q481.17 15.65 481.17 15.36L481.17 15.36L481.17 15.36Q481.17 15.13 481.29 14.73L481.29 14.73L481.29 14.73Q481.42 14.32 481.66 13.77L481.66 13.77L481.66 13.77Q481.91 13.22 482.25 12.54L482.25 12.54L482.25 12.54Q482.59 11.87 483.03 11.10L483.03 11.10L483.03 11.10Q482.66 11.09 482.38 11.08L482.38 11.08L482.38 11.08Q482.09 11.07 481.91 11.07L481.91 11.07L481.91 11.07Q481.99 10.86 482.38 10.71L482.38 10.71L482.38 10.71Q482.78 10.56 483.42 10.44L483.42 10.44L483.42 10.44Q483.97 9.53 484.59 8.71L484.59 8.71L484.59 8.71Q485.21 7.88 485.84 7.19L485.84 7.19L485.84 7.19Q486.47 6.50 487.10 5.97L487.10 5.97L487.10 5.97Q487.73 5.45 488.31 5.14L488.31 5.14L488.31 5.14Q488.32 5.04 488.33 4.97L488.33 4.97L488.33 4.97Q488.33 4.90 488.33 4.87L488.33 4.87L488.33 4.87Q488.53 4.87 488.86 4.97L488.86 4.97L488.86 4.97Q489.19 5.07 489.50 5.21L489.50 5.21L489.50 5.21Q489.82 5.35 490.06 5.49L490.06 5.49L490.06 5.49Q490.31 5.64 490.34 5.74L490.34 5.74L490.34 5.74Q489.87 6.55 489.43 8.17L489.43 8.17L489.43 8.17Q488.98 9.79 488.68 12.04L488.68 12.04L488.68 12.04Q488.61 12.60 488.56 13.31L488.56 13.31L488.56 13.31Q488.52 14.03 488.52 14.91L488.52 14.91L488.52 14.91Q488.52 15.22 488.52 15.54L488.52 15.54L488.52 15.54Q488.52 15.86 488.54 16.21L488.54 16.21L488.54 16.21Q488.52 16.23 488.49 16.23L488.49 16.23L488.49 16.23Q488.46 16.23 488.38 16.23L488.38 16.23L488.38 16.23Q488.18 16.23 487.92 16.16L487.92 16.16L487.92 16.16Q487.66 16.10 487.42 16.01L487.42 16.01L487.42 16.01Q487.17 15.92 487.00 15.81L487.00 15.81L487.00 15.81Q486.82 15.69 486.78 15.61L486.78 15.61L486.78 15.61Q486.77 15.43 486.77 15.25L486.77 15.25L486.77 15.25Q486.77 15.08 486.77 14.88L486.77 14.88L486.77 14.88Q486.77 14.01 486.83 13.12L486.83 13.12L486.83 13.12Q486.89 12.22 487.05 11.27L487.05 11.27L487.05 11.27Q486.85 11.26 486.53 11.23L486.53 11.23L486.53 11.23Q486.21 11.21 485.81 11.20L485.81 11.20L485.81 11.20Q485.41 11.19 484.95 11.16L484.95 11.16L484.95 11.16Q484.50 11.14 484.06 11.13L484.06 11.13L484.06 11.13Q483.73 11.76 483.43 12.38L483.43 12.38L483.43 12.38Q483.14 13.01 482.93 13.64L482.93 13.64L482.93 13.64Q482.69 14.31 482.54 14.98L482.54 14.98L482.54 14.98Q482.40 15.65 482.36 16.24ZM487.76 7.83L487.76 7.83L487.76 7.83Q487.82 7.63 487.89 7.29L487.89 7.29L487.89 7.29Q487.97 6.94 488.04 6.57L488.04 6.57L488.04 6.57Q487.69 6.69 487.26 7.03L487.26 7.03L487.26 7.03Q486.84 7.36 486.38 7.86L486.38 7.86L486.38 7.86Q485.93 8.36 485.46 8.98L485.46 8.98L485.46 8.98Q484.99 9.60 484.55 10.30L484.55 10.30L484.55 10.30Q485.73 10.21 487.23 10.18L487.23 10.18L487.23 10.18Q487.34 9.59 487.47 9.01L487.47 9.01L487.47 9.01Q487.61 8.43 487.76 7.83ZM498.65 14.45L498.65 14.45L498.65 14.45Q498.86 13.99 499.16 13.26L499.16 13.26L499.16 13.26Q499.45 12.53 499.77 11.68L499.77 11.68L499.77 11.68Q500.09 10.84 500.43 9.95L500.43 9.95L500.43 9.95Q500.77 9.06 501.06 8.26L501.06 8.26L501.06 8.26Q501.35 7.46 501.57 6.83L501.57 6.83L501.57 6.83Q501.79 6.20 501.89 5.87L501.89 5.87L501.89 5.87Q501.00 6.23 500.37 6.97L500.37 6.97L500.37 6.97Q499.74 7.71 499.42 8.83L499.42 8.83L499.42 8.83Q499.10 8.72 498.83 8.43L498.83 8.43L498.83 8.43Q498.57 8.15 498.48 7.71L498.48 7.71L498.48 7.71Q498.62 7.07 499.01 6.54L499.01 6.54L499.01 6.54Q499.39 6.01 499.98 5.63L499.98 5.63L499.98 5.63Q500.57 5.25 501.34 5.05L501.34 5.05L501.34 5.05Q502.11 4.84 502.99 4.84L502.99 4.84L502.99 4.84Q504.11 4.84 505.05 5.17L505.05 5.17L505.05 5.17Q505.99 5.50 506.66 6.09L506.66 6.09L506.66 6.09Q507.33 6.68 507.71 7.50L507.71 7.50L507.71 7.50Q508.09 8.33 508.09 9.34L508.09 9.34L508.09 9.34Q508.09 10.71 507.58 11.96L507.58 11.96L507.58 11.96Q507.08 13.20 506.22 14.15L506.22 14.15L506.22 14.15Q505.36 15.11 504.22 15.67L504.22 15.67L504.22 15.67Q503.09 16.24 501.84 16.24L501.84 16.24L501.84 16.24Q500.70 16.24 499.88 15.79L499.88 15.79L499.88 15.79Q499.06 15.33 498.65 14.45ZM503.59 5.54L503.59 5.54L503.59 5.54Q502.89 5.54 502.26 5.74L502.26 5.74L502.26 5.74Q502.88 5.96 503.29 6.21L503.29 6.21L503.29 6.21Q503.69 6.45 503.85 6.59L503.85 6.59L503.85 6.59Q503.73 6.75 503.52 7.14L503.52 7.14L503.52 7.14Q503.30 7.53 503.01 8.09L503.01 8.09L503.01 8.09Q502.73 8.65 502.40 9.32L502.40 9.32L502.40 9.32Q502.08 9.98 501.77 10.68L501.77 10.68L501.77 10.68Q500.98 12.46 500.62 13.48L500.62 13.48L500.62 13.48Q500.26 14.50 500.26 14.90L500.26 14.90L500.26 14.90Q500.46 14.97 500.74 14.99L500.74 14.99L500.74 14.99Q501.02 15.02 501.34 15.02L501.34 15.02L501.34 15.02Q502.47 15.02 503.49 14.50L503.49 14.50L503.49 14.50Q504.50 13.97 505.27 13.09L505.27 13.09L505.27 13.09Q506.03 12.21 506.47 11.04L506.47 11.04L506.47 11.04Q506.91 9.87 506.91 8.58L506.91 8.58L506.91 8.58Q506.91 7.14 506.02 6.34L506.02 6.34L506.02 6.34Q505.12 5.54 503.59 5.54ZM521.39 9.21L521.39 9.21L521.39 9.21Q521.85 9.21 522.11 9.46L522.11 9.46L522.11 9.46Q522.37 9.72 522.37 10.16L522.37 10.16L522.37 10.16Q522.37 10.28 522.35 10.39L522.35 10.39L522.35 10.39Q522.33 10.51 522.30 10.60L522.30 10.60L522.30 10.60Q522.12 10.57 521.89 10.55L521.89 10.55L521.89 10.55Q521.67 10.53 521.36 10.53L521.36 10.53L521.36 10.53Q520.76 10.53 520.14 10.63L520.14 10.63L520.14 10.63Q519.53 10.74 518.97 10.81L518.97 10.81L518.97 10.81Q518.64 11.55 518.38 12.24L518.38 12.24L518.38 12.24Q518.11 12.94 517.92 13.51L517.92 13.51L517.92 13.51Q517.73 14.08 517.63 14.50L517.63 14.50L517.63 14.50Q517.52 14.92 517.51 15.13L517.51 15.13L517.51 15.13Q518.64 14.90 519.80 14.73L519.80 14.73L519.80 14.73Q520.95 14.56 522.23 14.48L522.23 14.48L522.23 14.48Q522.38 14.71 522.49 14.99L522.49 14.99L522.49 14.99Q522.59 15.27 522.59 15.60L522.59 15.60L522.59 15.60Q522.59 15.68 522.59 15.78L522.59 15.78L522.59 15.78Q522.59 15.88 522.56 15.97L522.56 15.97L522.56 15.97Q522.17 15.96 521.74 15.95L521.74 15.95L521.74 15.95Q521.30 15.95 520.60 15.95L520.60 15.95L520.60 15.95Q520.14 15.95 519.73 15.97L519.73 15.97L519.73 15.97Q519.32 15.99 518.90 16.03L518.90 16.03L518.90 16.03Q518.48 16.07 518.01 16.14L518.01 16.14L518.01 16.14Q517.54 16.21 516.95 16.31L516.95 16.31L516.95 16.31Q516.31 16.06 515.70 15.08L515.70 15.08L515.70 15.08Q515.94 14.57 516.37 13.54L516.37 13.54L516.37 13.54Q516.80 12.52 517.45 10.79L517.45 10.79L517.45 10.79Q516.82 10.60 516.63 10.09L516.63 10.09L516.63 10.09Q516.70 10.02 517.03 9.92L517.03 9.92L517.03 9.92Q517.37 9.81 517.86 9.70L517.86 9.70L517.86 9.70Q518.07 9.16 518.22 8.75L518.22 8.75L518.22 8.75Q518.36 8.34 518.48 7.99L518.48 7.99L518.48 7.99Q518.59 7.63 518.68 7.29L518.68 7.29L518.68 7.29Q518.77 6.94 518.85 6.54L518.85 6.54L518.85 6.54Q518.36 6.51 518.08 6.27L518.08 6.27L518.08 6.27Q517.80 6.02 517.80 5.63L517.80 5.63L517.80 5.63Q517.80 5.52 517.84 5.36L517.84 5.36L517.84 5.36Q517.87 5.21 517.92 5.10L517.92 5.10L517.92 5.10Q518.20 5.14 518.45 5.15L518.45 5.15L518.45 5.15Q518.71 5.17 519.13 5.17L519.13 5.17L519.13 5.17Q520.02 5.17 520.79 5.12L520.79 5.12L520.79 5.12Q521.56 5.07 522.18 5.01L522.18 5.01L522.18 5.01Q522.80 4.96 523.25 4.91L523.25 4.91L523.25 4.91Q523.70 4.86 523.94 4.86L523.94 4.86L523.94 4.86Q524.26 4.86 524.51 5.19L524.51 5.19L524.51 5.19Q524.76 5.53 524.89 6.15L524.89 6.15L524.89 6.15Q524.45 6.10 524.18 6.09L524.18 6.09L524.18 6.09Q523.91 6.08 523.70 6.08L523.70 6.08L523.70 6.08Q522.93 6.08 522.29 6.15L522.29 6.15L522.29 6.15Q521.65 6.23 521.07 6.31L521.07 6.31L521.07 6.31Q520.98 6.44 520.88 6.64L520.88 6.64L520.88 6.64Q520.77 6.83 520.60 7.18L520.60 7.18L520.60 7.18Q520.44 7.53 520.19 8.06L520.19 8.06L520.19 8.06Q519.95 8.60 519.60 9.39L519.60 9.39L519.60 9.39Q520.13 9.31 520.60 9.26L520.60 9.26L520.60 9.26Q521.07 9.21 521.39 9.21ZM542.09 16.24L542.09 16.24L542.09 16.24Q541.42 16.04 541.16 15.85L541.16 15.85L541.16 15.85Q540.90 15.65 540.90 15.36L540.90 15.36L540.90 15.36Q540.90 15.13 541.03 14.73L541.03 14.73L541.03 14.73Q541.16 14.32 541.40 13.77L541.40 13.77L541.40 13.77Q541.65 13.22 541.99 12.54L541.99 12.54L541.99 12.54Q542.33 11.87 542.77 11.10L542.77 11.10L542.77 11.10Q542.40 11.09 542.11 11.08L542.11 11.08L542.11 11.08Q541.83 11.07 541.65 11.07L541.65 11.07L541.65 11.07Q541.73 10.86 542.12 10.71L542.12 10.71L542.12 10.71Q542.51 10.56 543.16 10.44L543.16 10.44L543.16 10.44Q543.70 9.53 544.33 8.71L544.33 8.71L544.33 8.71Q544.95 7.88 545.58 7.19L545.58 7.19L545.58 7.19Q546.21 6.50 546.84 5.97L546.84 5.97L546.84 5.97Q547.47 5.45 548.04 5.14L548.04 5.14L548.04 5.14Q548.06 5.04 548.06 4.97L548.06 4.97L548.06 4.97Q548.07 4.90 548.07 4.87L548.07 4.87L548.07 4.87Q548.27 4.87 548.60 4.97L548.60 4.97L548.60 4.97Q548.93 5.07 549.24 5.21L549.24 5.21L549.24 5.21Q549.56 5.35 549.80 5.49L549.80 5.49L549.80 5.49Q550.05 5.64 550.07 5.74L550.07 5.74L550.07 5.74Q549.61 6.55 549.16 8.17L549.16 8.17L549.16 8.17Q548.72 9.79 548.42 12.04L548.42 12.04L548.42 12.04Q548.35 12.60 548.30 13.31L548.30 13.31L548.30 13.31Q548.25 14.03 548.25 14.91L548.25 14.91L548.25 14.91Q548.25 15.22 548.25 15.54L548.25 15.54L548.25 15.54Q548.25 15.86 548.28 16.21L548.28 16.21L548.28 16.21Q548.25 16.23 548.23 16.23L548.23 16.23L548.23 16.23Q548.20 16.23 548.11 16.23L548.11 16.23L548.11 16.23Q547.92 16.23 547.66 16.16L547.66 16.16L547.66 16.16Q547.40 16.10 547.15 16.01L547.15 16.01L547.15 16.01Q546.91 15.92 546.73 15.81L546.73 15.81L546.73 15.81Q546.56 15.69 546.52 15.61L546.52 15.61L546.52 15.61Q546.50 15.43 546.50 15.25L546.50 15.25L546.50 15.25Q546.50 15.08 546.50 14.88L546.50 14.88L546.50 14.88Q546.50 14.01 546.57 13.12L546.57 13.12L546.57 13.12Q546.63 12.22 546.78 11.27L546.78 11.27L546.78 11.27Q546.59 11.26 546.27 11.23L546.27 11.23L546.27 11.23Q545.94 11.21 545.54 11.20L545.54 11.20L545.54 11.20Q545.15 11.19 544.69 11.16L544.69 11.16L544.69 11.16Q544.24 11.14 543.80 11.13L543.80 11.13L543.80 11.13Q543.47 11.76 543.17 12.38L543.17 12.38L543.17 12.38Q542.88 13.01 542.67 13.64L542.67 13.64L542.67 13.64Q542.43 14.31 542.28 14.98L542.28 14.98L542.28 14.98Q542.14 15.65 542.09 16.24ZM547.50 7.83L547.50 7.83L547.50 7.83Q547.55 7.63 547.63 7.29L547.63 7.29L547.63 7.29Q547.71 6.94 547.78 6.57L547.78 6.57L547.78 6.57Q547.43 6.69 547.00 7.03L547.00 7.03L547.00 7.03Q546.57 7.36 546.12 7.86L546.12 7.86L546.12 7.86Q545.66 8.36 545.19 8.98L545.19 8.98L545.19 8.98Q544.73 9.60 544.29 10.30L544.29 10.30L544.29 10.30Q545.47 10.21 546.97 10.18L546.97 10.18L546.97 10.18Q547.08 9.59 547.21 9.01L547.21 9.01L547.21 9.01Q547.34 8.43 547.50 7.83ZM558.80 15.61L558.80 15.61L558.80 15.61Q558.73 15.04 558.69 14.36L558.69 14.36L558.69 14.36Q558.66 13.68 558.66 13.09L558.66 13.09L558.66 13.09Q558.66 12.15 558.72 11.29L558.72 11.29L558.72 11.29Q558.78 10.43 558.87 9.48L558.87 9.48L558.87 9.48Q558.96 8.54 559.08 7.43L559.08 7.43L559.08 7.43Q559.19 6.31 559.27 4.86L559.27 4.86L559.27 4.86Q559.45 4.86 559.80 4.96L559.80 4.96L559.80 4.96Q560.14 5.07 560.49 5.21L560.49 5.21L560.49 5.21Q560.84 5.35 561.11 5.49L561.11 5.49L561.11 5.49Q561.37 5.64 561.41 5.74L561.41 5.74L561.41 5.74Q561.18 6.29 560.99 7.18L560.99 7.18L560.99 7.18Q560.80 8.06 560.67 9.11L560.67 9.11L560.67 9.11Q560.55 10.16 560.48 11.27L560.48 11.27L560.48 11.27Q560.41 12.38 560.41 13.34L560.41 13.34L560.41 13.34Q560.41 13.79 560.42 14.22L560.42 14.22L560.42 14.22Q560.43 14.66 560.46 15.02L560.46 15.02L560.46 15.02Q560.76 14.59 561.14 13.78L561.14 13.78L561.14 13.78Q561.53 12.98 561.94 11.98L561.94 11.98L561.94 11.98Q562.35 10.99 562.76 9.91L562.76 9.91L562.76 9.91Q563.18 8.82 563.53 7.83L563.53 7.83L563.53 7.83Q563.88 6.85 564.12 6.05L564.12 6.05L564.12 6.05Q564.37 5.26 564.47 4.86L564.47 4.86L564.47 4.86Q564.65 4.86 565.00 4.96L565.00 4.96L565.00 4.96Q565.36 5.07 565.70 5.21L565.70 5.21L565.70 5.21Q566.05 5.35 566.31 5.49L566.31 5.49L566.31 5.49Q566.58 5.64 566.61 5.74L566.61 5.74L566.61 5.74Q566.37 6.29 566.18 7.18L566.18 7.18L566.18 7.18Q565.99 8.06 565.87 9.11L565.87 9.11L565.87 9.11Q565.74 10.16 565.67 11.27L565.67 11.27L565.67 11.27Q565.60 12.38 565.60 13.34L565.60 13.34L565.60 13.34Q565.60 13.75 565.61 14.15L565.61 14.15L565.61 14.15Q565.61 14.55 565.64 14.87L565.64 14.87L565.64 14.87Q566.09 13.71 566.57 12.56L566.57 12.56L566.57 12.56Q567.06 11.42 567.53 10.38L567.53 10.38L567.53 10.38Q568.01 9.34 568.46 8.43L568.46 8.43L568.46 8.43Q568.90 7.53 569.28 6.82L569.28 6.82L569.28 6.82Q569.66 6.12 569.94 5.66L569.94 5.66L569.94 5.66Q570.22 5.19 570.37 5.04L570.37 5.04L570.37 5.04Q570.70 5.08 571.04 5.27L571.04 5.27L571.04 5.27Q571.38 5.46 571.65 5.75L571.65 5.75L571.65 5.75Q571.24 6.08 570.72 6.81L570.72 6.81L570.72 6.81Q570.21 7.55 569.66 8.51L569.66 8.51L569.66 8.51Q569.11 9.48 568.56 10.57L568.56 10.57L568.56 10.57Q568.01 11.66 567.53 12.70L567.53 12.70L567.53 12.70Q567.06 13.73 566.68 14.63L566.68 14.63L566.68 14.63Q566.31 15.53 566.12 16.07L566.12 16.07L566.12 16.07Q565.75 16.24 565.40 16.24L565.40 16.24L565.40 16.24Q564.96 16.18 564.56 16.02L564.56 16.02L564.56 16.02Q564.16 15.85 563.99 15.61L563.99 15.61L563.99 15.61Q563.95 15.39 563.92 15.09L563.92 15.09L563.92 15.09Q563.89 14.78 563.88 14.49L563.88 14.49L563.88 14.49Q563.86 14.20 563.86 13.92L563.86 13.92L563.86 13.92Q563.85 13.65 563.85 13.45L563.85 13.45L563.85 13.45Q563.85 12.21 563.95 10.91L563.95 10.91L563.95 10.91Q564.05 9.62 564.19 8.13L564.19 8.13L564.19 8.13Q563.86 9.09 563.47 10.18L563.47 10.18L563.47 10.18Q563.08 11.27 562.65 12.34L562.65 12.34L562.65 12.34Q562.23 13.41 561.78 14.38L561.78 14.38L561.78 14.38Q561.34 15.36 560.92 16.07L560.92 16.07L560.92 16.07Q560.56 16.24 560.21 16.24L560.21 16.24L560.21 16.24Q559.76 16.18 559.36 16.02L559.36 16.02L559.36 16.02Q558.96 15.85 558.80 15.61ZM577.79 16.24L577.79 16.24L577.79 16.24Q577.12 16.04 576.86 15.85L576.86 15.85L576.86 15.85Q576.60 15.65 576.60 15.36L576.60 15.36L576.60 15.36Q576.60 15.13 576.73 14.73L576.73 14.73L576.73 14.73Q576.86 14.32 577.10 13.77L577.10 13.77L577.10 13.77Q577.35 13.22 577.69 12.54L577.69 12.54L577.69 12.54Q578.03 11.87 578.47 11.10L578.47 11.10L578.47 11.10Q578.10 11.09 577.81 11.08L577.81 11.08L577.81 11.08Q577.53 11.07 577.35 11.07L577.35 11.07L577.35 11.07Q577.43 10.86 577.82 10.71L577.82 10.71L577.82 10.71Q578.21 10.56 578.86 10.44L578.86 10.44L578.86 10.44Q579.40 9.53 580.03 8.71L580.03 8.71L580.03 8.71Q580.65 7.88 581.28 7.19L581.28 7.19L581.28 7.19Q581.91 6.50 582.54 5.97L582.54 5.97L582.54 5.97Q583.17 5.45 583.74 5.14L583.74 5.14L583.74 5.14Q583.76 5.04 583.76 4.97L583.76 4.97L583.76 4.97Q583.77 4.90 583.77 4.87L583.77 4.87L583.77 4.87Q583.97 4.87 584.30 4.97L584.30 4.97L584.30 4.97Q584.63 5.07 584.94 5.21L584.94 5.21L584.94 5.21Q585.26 5.35 585.50 5.49L585.50 5.49L585.50 5.49Q585.75 5.64 585.77 5.74L585.77 5.74L585.77 5.74Q585.31 6.55 584.86 8.17L584.86 8.17L584.86 8.17Q584.42 9.79 584.12 12.04L584.12 12.04L584.12 12.04Q584.05 12.60 584.00 13.31L584.00 13.31L584.00 13.31Q583.95 14.03 583.95 14.91L583.95 14.91L583.95 14.91Q583.95 15.22 583.95 15.54L583.95 15.54L583.95 15.54Q583.95 15.86 583.98 16.21L583.98 16.21L583.98 16.21Q583.95 16.23 583.93 16.23L583.93 16.23L583.93 16.23Q583.90 16.23 583.81 16.23L583.81 16.23L583.81 16.23Q583.62 16.23 583.36 16.16L583.36 16.16L583.36 16.16Q583.10 16.10 582.85 16.01L582.85 16.01L582.85 16.01Q582.61 15.92 582.43 15.81L582.43 15.81L582.43 15.81Q582.26 15.69 582.22 15.61L582.22 15.61L582.22 15.61Q582.20 15.43 582.20 15.25L582.20 15.25L582.20 15.25Q582.20 15.08 582.20 14.88L582.20 14.88L582.20 14.88Q582.20 14.01 582.27 13.12L582.27 13.12L582.27 13.12Q582.33 12.22 582.48 11.27L582.48 11.27L582.48 11.27Q582.29 11.26 581.97 11.23L581.97 11.23L581.97 11.23Q581.64 11.21 581.24 11.20L581.24 11.20L581.24 11.20Q580.85 11.19 580.39 11.16L580.39 11.16L580.39 11.16Q579.94 11.14 579.50 11.13L579.50 11.13L579.50 11.13Q579.17 11.76 578.87 12.38L578.87 12.38L578.87 12.38Q578.58 13.01 578.37 13.64L578.37 13.64L578.37 13.64Q578.13 14.31 577.98 14.98L577.98 14.98L577.98 14.98Q577.84 15.65 577.79 16.24ZM583.20 7.83L583.20 7.83L583.20 7.83Q583.25 7.63 583.33 7.29L583.33 7.29L583.33 7.29Q583.41 6.94 583.48 6.57L583.48 6.57L583.48 6.57Q583.13 6.69 582.70 7.03L582.70 7.03L582.70 7.03Q582.27 7.36 581.82 7.86L581.82 7.86L581.82 7.86Q581.36 8.36 580.89 8.98L580.89 8.98L580.89 8.98Q580.43 9.60 579.99 10.30L579.99 10.30L579.99 10.30Q581.17 10.21 582.67 10.18L582.67 10.18L582.67 10.18Q582.78 9.59 582.91 9.01L582.91 9.01L582.91 9.01Q583.04 8.43 583.20 7.83ZM597.34 10.35L597.34 10.35L597.34 10.35Q598.39 9.20 599.22 7.91L599.22 7.91L599.22 7.91Q600.05 6.62 600.77 5.01L600.77 5.01L600.77 5.01Q601.13 5.05 601.47 5.21L601.47 5.21L601.47 5.21Q601.80 5.36 602.00 5.56L602.00 5.56L602.00 5.56Q601.23 6.48 600.61 7.24L600.61 7.24L600.61 7.24Q599.98 7.99 599.47 8.66L599.47 8.66L599.47 8.66Q598.95 9.32 598.51 9.93L598.51 9.93L598.51 9.93Q598.07 10.54 597.65 11.16L597.65 11.16L597.65 11.16Q597.44 11.87 597.25 12.60L597.25 12.60L597.25 12.60Q597.07 13.33 596.93 13.99L596.93 13.99L596.93 13.99Q596.79 14.66 596.71 15.22L596.71 15.22L596.71 15.22Q596.64 15.79 596.64 16.20L596.64 16.20L596.64 16.20Q596.48 16.20 596.15 16.14L596.15 16.14L596.15 16.14Q595.81 16.07 595.46 15.99L595.46 15.99L595.46 15.99Q595.11 15.90 594.82 15.82L594.82 15.82L594.82 15.82Q594.54 15.74 594.48 15.68L594.48 15.68L594.48 15.68Q594.71 15.30 594.92 14.75L594.92 14.75L594.92 14.75Q595.14 14.20 595.35 13.59L595.35 13.59L595.35 13.59Q595.56 12.98 595.76 12.36L595.76 12.36L595.76 12.36Q595.95 11.73 596.12 11.20L596.12 11.20L596.12 11.20Q595.77 10.11 595.44 9.15L595.44 9.15L595.44 9.15Q595.11 8.19 594.80 7.41L594.80 7.41L594.80 7.41Q594.50 6.64 594.22 6.08L594.22 6.08L594.22 6.08Q593.94 5.52 593.68 5.22L593.68 5.22L593.68 5.22Q593.82 5.17 594.11 5.11L594.11 5.11L594.11 5.11Q594.40 5.05 594.74 5.00L594.74 5.00L594.74 5.00Q595.08 4.94 595.44 4.91L595.44 4.91L595.44 4.91Q595.80 4.87 596.08 4.86L596.08 4.86L596.08 4.86Q596.08 5.21 596.14 5.71L596.14 5.71L596.14 5.71Q596.20 6.22 596.31 6.79L596.31 6.79L596.31 6.79Q596.41 7.36 596.55 7.95L596.55 7.95L596.55 7.95Q596.69 8.54 596.83 9.03L596.83 9.03L596.83 9.03Q596.97 9.52 597.11 9.88L597.11 9.88L597.11 9.88Q597.24 10.23 597.34 10.35Z"></path></g></svg>