<svg data-v-423bf9ae="" xmlns="http://www.w3.org/2000/svg" viewBox="0 0 215.21102094468404 60" class="font"><!----><!----><!----><g data-v-423bf9ae="" id="1f55ef3b-74d8-4477-aade-2e5dc68d8758" fill="black" transform="matrix(4.87012961377663,0,0,4.87012961377663,-1.314937163026073,-3.4090909696103964)"><path d="M3.54 8.81L5.46 8.81L5.80 10.50L8.74 10.50L6.36 0.70L2.63 0.70L0.27 10.50L3.21 10.50ZM4.98 6.41L4.00 6.41L4.49 3.95ZM12.26 3.75L9.35 3.75L9.35 13.02L12.26 13.02L12.26 10.05C12.68 10.47 13.26 10.68 13.83 10.68C15.44 10.68 16.74 9.11 16.74 7.13C16.74 5.12 15.44 3.64 13.83 3.64C13.26 3.64 12.67 3.79 12.26 4.23ZM12.25 7.13C12.25 6.58 12.47 6.17 12.99 6.17C13.50 6.17 13.73 6.58 13.73 7.13C13.73 7.66 13.50 8.09 12.99 8.09C12.47 8.09 12.25 7.66 12.25 7.13ZM23.74 4.30C23.44 3.86 22.96 3.60 22.25 3.60C21 3.60 20.61 4.05 20.26 4.24L20.26 3.74L17.32 3.74L17.32 10.50L20.26 10.50L20.26 7.28C20.26 6.85 20.36 6.34 20.92 6.34C21.14 6.34 21.38 6.57 21.38 6.82L21.38 10.50L24.32 10.50L24.32 7.28C24.32 6.85 24.42 6.34 24.98 6.34C25.20 6.34 25.44 6.57 25.44 6.82L25.44 10.50L28.38 10.50L28.38 6.82C28.38 5.24 27.86 3.60 26.11 3.60C25.21 3.60 24.49 3.84 23.74 4.30ZM29.33 1.33C29.33 1.33 29.33 4.26 29.33 4.23C29.74 4.00 30.11 3.81 30.66 3.81C31.36 3.81 31.86 4.16 31.86 4.91C31.86 6.34 29.97 7.25 29.05 7.87L29.05 10.50L35.97 10.50L35.97 7.87C35.97 7.87 33.01 7.87 33.03 7.87C34.08 6.72 35.50 5.46 35.50 3.85C35.50 1.92 33.61 0.80 31.81 0.80C30.94 0.80 30.07 0.95 29.33 1.33ZM41.06 4.44C41.06 4.87 40.71 5.24 40.31 5.24C39.89 5.24 39.55 4.87 39.55 4.44C39.55 4.00 39.89 3.64 40.31 3.64C40.71 3.64 41.06 4.00 41.06 4.44ZM36.29 4.45C36.29 6.29 37.63 7.43 39.30 7.43C39.96 7.43 40.18 7.32 40.43 7.24C40.03 8.51 39.09 9.48 38.26 10.50L41.66 10.50C43.11 9.04 44.46 6.57 44.46 4.45C44.46 2.06 42.55 0.77 40.32 0.77C38.08 0.77 36.29 2.06 36.29 4.45Z"></path></g><!----><!----></svg>